<svg xmlns="http://www.w3.org/2000/svg" width="24" height="24" fill="none" viewBox="0 0 24 24">
    <path fill="#fff" d="M3.516 24h16.968A3.52 3.52 0 0 0 24 20.484V3.516A3.52 3.52 0 0 0 20.484 0H3.516A3.52 3.52 0 0 0 0 3.516v16.968A3.52 3.52 0 0 0 3.516 24zM1.406 3.516c0-1.163.947-2.11 2.11-2.11h16.968c1.163 0 2.11.947 2.11 2.11v16.968c0 1.163-.947 2.11-2.11 2.11H3.516a2.112 2.112 0 0 1-2.11-2.11V3.516z"/>
    <path fill="#fff" d="M12 18.328A6.335 6.335 0 0 0 18.328 12 6.335 6.335 0 0 0 12 5.672 6.335 6.335 0 0 0 5.672 12 6.335 6.335 0 0 0 12 18.328zm0-11.25A4.927 4.927 0 0 1 16.922 12 4.927 4.927 0 0 1 12 16.922 4.927 4.927 0 0 1 7.078 12 4.927 4.927 0 0 1 12 7.078zM19.031 7.078c1.163 0 2.11-.946 2.11-2.11 0-1.162-.947-2.109-2.11-2.109-1.163 0-2.11.947-2.11 2.11 0 1.163.947 2.11 2.11 2.11zm0-2.812a.704.704 0 0 1 0 1.406.704.704 0 0 1 0-1.406z"/>
</svg>
