<svg xmlns="http://www.w3.org/2000/svg" width="411" height="101" fill="none" viewBox="0 0 411 101">
    <mask id="a" width="503" height="104" x="0" y="0" maskUnits="userSpaceOnUse">
        <path fill="#C4C4C4" d="M0 0h502.345v103.933H0z"/>
    </mask>
    <g fill="#fff" mask="url(#a)">
        <path d="M108.229 58.497c0-5.018 3.907-9.186 9.344-9.186 5.437 0 9.345 4.083 9.345 9.016v.085c0 5.019-3.908 9.101-9.345 9.101-5.437 0-9.344-4.082-9.344-9.016zm14.781 0c0-3.147-2.293-5.699-5.437-5.699-3.228 0-5.437 2.552-5.437 5.614v.085c0 3.063 2.294 5.7 5.437 5.7 3.229-.086 5.437-2.638 5.437-5.7zM130.656 49.566h13.338v3.402h-9.685v3.998h8.58v3.317h-8.58v6.975h-3.653V49.566zM161.153 49.481h3.399l7.56 17.777h-3.907l-1.615-3.997h-7.645l-1.614 3.997h-3.823l7.645-17.777zm4.163 10.462l-2.464-5.954-2.463 5.954h4.927zM174.577 64.451l9.854-11.567h-9.514v-3.318h14.272v2.807l-9.77 11.568h9.77v3.317h-14.612v-2.807zM193.097 49.566h13.253v3.317h-9.515v3.828h8.411v3.317h-8.411v3.913h9.6v3.317h-13.338V49.566zM210.173 49.566h7.986c2.209 0 3.993.596 5.097 1.786.935.936 1.444 2.382 1.444 3.998v.085c0 2.892-1.529 4.678-3.822 5.444l4.417 6.38h-4.333l-3.907-5.7h-3.229v5.7h-3.653V49.565zm7.731 8.591c1.954 0 3.058-1.02 3.058-2.552v-.085c0-1.7-1.189-2.552-3.143-2.552h-3.993v5.189h4.078zM228.521 49.566h8.07c2.039 0 3.569.596 4.588 1.531.765.85 1.189 1.786 1.189 2.977v.085c0 2.042-1.104 3.147-2.378 3.828 2.038.765 3.313 1.956 3.313 4.338v.085c0 3.232-2.634 4.848-6.542 4.848h-8.325V49.566h.085zm10.279 5.189c0-1.191-.934-1.872-2.633-1.872h-3.993v3.913h3.738c1.699 0 2.888-.595 2.888-2.041zm-2.039 5.103h-4.587v4.083h4.757c1.784 0 2.889-.68 2.889-2.041v-.085c-.085-1.191-1.02-1.957-3.059-1.957zM252.988 49.481h3.398l7.561 17.777h-3.908l-1.614-3.997h-7.646l-1.614 3.997h-3.823l7.646-17.777zm4.078 10.462l-2.464-5.954-2.464 5.954h4.928zM270.913 49.566h-3.738v17.607h3.738V49.566zM273.801 64.791l2.379-2.636c1.019 1.19 1.954 1.871 3.228 1.871 1.529 0 2.464-.936 2.464-3.062V49.566h3.823v11.568c0 2.041-.595 3.657-1.615 4.678-1.104 1.106-2.633 1.616-4.502 1.616-2.804 0-4.588-1.19-5.777-2.636zM295.38 49.481h3.398l7.561 17.777h-3.908l-1.614-3.997h-7.646l-1.614 3.997h-3.823l7.646-17.777zm4.078 10.462l-2.464-5.954-2.463 5.954h4.927zM309.312 49.566h3.398l8.495 11.143V49.566h3.738v17.692h-3.228l-8.75-11.483v11.483h-3.653V49.566zM111.966 21.497h-3.737v17.607h3.737V21.497zM116.639 21.497h3.398l8.495 11.143V21.497h3.653V39.19h-3.143l-8.75-11.483V39.19h-3.653V21.497zM140.85 24.985h-5.437v-3.488h14.527v3.488h-5.352v14.204h-3.738V24.985zM153.17 21.497h13.252v3.317h-9.599v3.828h8.41v3.317h-8.41v3.913h9.684v3.317H153.17V21.497zM170.246 21.497h7.985c2.209 0 3.993.596 5.097 1.786.935.936 1.445 2.382 1.445 3.998v.085c0 2.892-1.614 4.678-3.823 5.444l4.417 6.38h-4.332l-3.908-5.7h-3.228v5.7h-3.653V21.496zm7.73 8.591c1.954 0 3.059-1.02 3.059-2.552v-.085c0-1.701-1.19-2.552-3.144-2.552h-3.992v5.189h4.077zM188.594 21.497h3.398l8.496 11.143V21.497h3.653V39.19h-3.144l-8.75-11.483V39.19h-3.653V21.497zM214.675 21.412h3.398l7.56 17.777h-3.907l-1.614-3.998h-7.646l-1.614 3.998h-3.823l7.646-17.777zm4.162 10.462l-2.463-5.954-2.464 5.954h4.927zM230.561 24.985h-5.352v-3.488h14.527v3.488h-5.437v14.204h-3.738V24.985zM246.788 21.497h-3.738v17.607h3.738V21.497zM250.695 30.428c0-5.018 3.908-9.186 9.345-9.186 5.437 0 9.345 4.083 9.345 9.016v.085c0 5.019-3.908 9.101-9.345 9.101-5.522 0-9.345-3.997-9.345-9.016zm14.782 0c0-3.147-2.294-5.698-5.437-5.698-3.228 0-5.437 2.551-5.437 5.613v.085c0 3.062 2.294 5.7 5.437 5.7 3.143-.086 5.437-2.638 5.437-5.7zM273.037 21.497h3.398l8.495 11.143V21.497h3.653V39.19h-3.143l-8.75-11.483V39.19h-3.653V21.497zM299.117 21.412h3.398l7.561 17.777h-3.908l-1.614-3.998h-7.646l-1.614 3.998h-3.823l7.646-17.777zm4.163 10.462l-2.464-5.954-2.463 5.954h4.927zM313.137 21.497h3.738v14.29h8.835v3.402h-12.573V21.497zM336.581 21.497h8.071c2.039 0 3.568.596 4.587 1.531.765.85 1.19 1.786 1.19 2.977v.085c0 2.042-1.105 3.147-2.379 3.828 2.039.765 3.313 1.956 3.313 4.338v.085c0 3.232-2.633 4.848-6.541 4.848h-8.326V21.497h.085zm10.195 5.189c0-1.191-.935-1.872-2.634-1.872h-3.993v3.913h3.738c1.784 0 2.889-.595 2.889-2.041zm-2.039 5.103h-4.588v4.083h4.758c1.784 0 2.888-.68 2.888-2.041v-.086c0-1.19-.934-1.956-3.058-1.956zM360.964 21.412h3.398l7.561 17.777h-3.908l-1.614-3.998h-7.645l-1.615 3.998h-3.822l7.645-17.777zm4.163 10.462l-2.464-5.954-2.463 5.954h4.927zM374.98 21.497h3.398l8.495 11.143V21.497h3.653V39.19h-3.143l-8.75-11.483V39.19h-3.653V21.497zM395.029 21.497h3.738v7.996l7.306-7.996h4.587l-7.221 7.57L411 39.19h-4.503l-5.606-7.57-2.124 2.212v5.358h-3.738V21.497zM22.173 27.196c.34 2.127.934 4.168 1.699 6.124 1.954-.595 3.908-1.02 5.947-1.19l2.633-.256.255-2.636c.764-8.251 5.097-15.906 12.318-21.86a36.673 36.673 0 0 1 4.842 4.763c2.04-.936 4.163-1.616 6.372-2.212-2.549-3.317-5.692-6.379-9.345-9.1L45.025-.534 43.156.828c-9.005 6.55-14.782 15.48-16.396 25.262-1.614.34-3.143.68-4.587 1.106zm-5.522 21.18c1.784 1.275 3.568 2.381 5.522 3.147.934-1.787 2.039-3.488 3.313-5.019l1.699-2.041-1.7-2.041c-5.266-6.38-7.645-14.886-6.71-24.157a35.556 35.556 0 0 1 6.71-.085c.765-2.126 1.785-4.083 2.89-6.039-4.163-.595-8.496-.51-12.998.17l-2.294.34-.34 2.297c-1.7 11.057.51 21.434 6.286 29.515-.85 1.276-1.699 2.552-2.378 3.913zm24.381-32.152c-1.274 1.786-2.378 3.572-3.143 5.529 1.784.935 3.483 2.04 5.012 3.317l2.04 1.7 2.038-1.7c6.371-5.274 14.867-7.655 24.127-6.72.255 2.297.255 4.593.085 6.72 2.123.765 4.077 1.786 6.031 2.892.595-4.168.51-8.506-.17-13.014l-.34-2.297-2.293-.34c-11.044-1.701-21.408.51-29.479 6.294a26.682 26.682 0 0 0-3.908-2.381zM27.695 67.258c2.123-.34 4.162-.85 6.116-1.616-.594-1.956-1.02-3.912-1.189-5.954l-.255-2.637-2.633-.255c-8.24-.765-15.887-5.103-21.833-12.333a36.67 36.67 0 0 1 4.757-4.848c-.934-2.042-1.7-4.168-2.209-6.38-3.313 2.552-6.371 5.7-9.09 9.357L0 44.462l1.36 1.872c6.54 9.016 15.46 14.8 25.23 16.416.255 1.531.68 2.977 1.105 4.508zm21.068 5.529c1.274-1.786 2.379-3.572 3.143-5.529-1.784-.935-3.483-2.041-5.012-3.317l-2.039-1.701-2.039 1.701c-6.371 5.274-14.867 7.655-24.126 6.72a35.684 35.684 0 0 1-.085-6.72c-2.124-.766-4.078-1.786-6.032-2.892-.595 4.168-.51 8.506.17 13.014l.34 2.296 2.293.34c11.044 1.702 21.409-.51 29.48-6.294 1.273.851 2.633 1.617 3.907 2.382zm39.673-30.195c-6.541-9.017-15.461-14.8-25.231-16.416a37.2 37.2 0 0 0-1.02-4.423c-2.123.34-4.247.85-6.116 1.616.595 1.956 1.02 3.912 1.19 5.954l.254 2.636 2.634.256c8.24.765 15.886 5.103 21.833 12.333a36.683 36.683 0 0 1-4.758 4.848c.935 2.041 1.614 4.168 2.21 6.38 3.312-2.552 6.37-5.7 9.089-9.357l1.36-1.871-1.445-1.956zM73.144 40.55c-1.784-1.276-3.568-2.381-5.521-3.147-.935 1.786-2.04 3.487-3.314 5.019l-1.699 2.04 1.7 2.042c5.266 6.38 7.645 14.885 6.71 24.157a35.556 35.556 0 0 1-6.71.085c-.765 2.126-1.785 4.082-2.889 6.039 4.163.595 8.495.51 12.998-.17l2.294-.34.34-2.297c1.698-11.058-.51-21.435-6.287-29.515.85-1.191 1.699-2.552 2.378-3.913zm-5.521 21.18c-.34-2.127-.85-4.253-1.615-6.125-1.953.596-3.907 1.021-5.946 1.191l-2.634.255-.255 2.637c-.764 8.25-5.097 15.906-12.318 21.86a36.68 36.68 0 0 1-4.842-4.763c-2.039.935-4.163 1.616-6.372 2.211 2.549 3.317 5.692 6.38 9.345 9.101l1.87 1.361 1.868-1.36c9.005-6.55 14.782-15.481 16.396-25.263 1.614-.34 3.058-.68 4.503-1.105zM167.951 88.778c-.255.34-.51.68-.849 1.19-.34.511-.68 1.022-1.105 1.617-.425.595-.764 1.19-1.189 1.871-.425.596-.85 1.276-1.19 1.871-.424.596-.764 1.106-1.104 1.617-.34.51-.595.935-.849 1.275h-1.615c-.085-.34-.169-.765-.254-1.275-.085-.51-.17-1.021-.34-1.617-.085-.595-.255-1.19-.34-1.87-.085-.596-.255-1.277-.34-1.872-.085-.595-.255-1.106-.34-1.616-.085-.51-.17-.85-.255-1.19-.594 1.785-1.189 3.657-1.699 5.613a119.243 119.243 0 0 0-1.614 5.869h-2.039l1.02-3.828c.34-1.276.764-2.552 1.104-3.742.425-1.276.765-2.467 1.19-3.658.424-1.19.764-2.296 1.104-3.317h1.954c.17.595.34 1.36.51 2.212.17.85.339 1.7.594 2.636.17.936.34 1.872.51 2.722.17.936.255 1.701.425 2.467.51-.766 1.019-1.616 1.699-2.467a51.866 51.866 0 0 1 1.869-2.722 70.919 70.919 0 0 1 1.784-2.636c.595-.851 1.104-1.531 1.529-2.212h1.954c-.255 2.382-.595 4.763-.935 7.23-.424 2.467-.849 4.848-1.274 7.315h-2.039c.425-2.041.765-3.998 1.19-5.87.339-1.955.594-3.742.934-5.613zM175.001 100.516c-1.104 0-2.039-.341-2.719-1.021-.679-.68-.934-1.616-.934-2.807 0-.85.085-1.701.34-2.552.255-.935.594-1.7 1.104-2.466.51-.766 1.19-1.361 1.954-1.872.765-.51 1.784-.765 2.889-.765 1.104 0 2.038.34 2.718 1.02.68.68.934 1.617.934 2.807 0 .85-.084 1.701-.339 2.552a8.111 8.111 0 0 1-1.105 2.467c-.509.765-1.189 1.36-1.954 1.871-.764.51-1.784.766-2.888.766zm.34-1.702c.594 0 1.189-.17 1.699-.51.51-.34.934-.85 1.274-1.36.34-.596.595-1.192.765-1.872a8.25 8.25 0 0 0 .255-1.957c0-.68-.17-1.275-.425-1.7-.34-.426-.85-.596-1.614-.596-.595 0-1.19.17-1.699.51-.51.34-.935.85-1.275 1.361a7.255 7.255 0 0 0-.764 1.871 8.25 8.25 0 0 0-.255 1.957c0 .68.17 1.276.425 1.701.34.425.849.595 1.614.595zM191.311 98.05c0 .34 0 .68.085.935l.255 1.021-1.699.255c-.17-.34-.255-.68-.34-1.106-.34.255-.679.595-1.274.851a4.323 4.323 0 0 1-1.869.425 4.943 4.943 0 0 1-1.614-.255c-.425-.17-.85-.426-1.105-.766a4.532 4.532 0 0 1-.679-1.276c-.17-.51-.17-1.02-.17-1.616 0-.935.17-1.871.51-2.722.339-.935.764-1.7 1.444-2.381a6.336 6.336 0 0 1 2.378-1.701 7.821 7.821 0 0 1 3.229-.68h.424c.17 0 .34 0 .51.084l1.189-4.933 2.039-.34-2.973 12.248c-.085.34-.17.595-.17.936-.085.425-.17.68-.17 1.02zm-4.417.765c.594 0 1.104-.085 1.529-.34a5.45 5.45 0 0 0 1.104-.851c0-.255 0-.425.085-.765 0-.256.085-.51.17-.851l1.274-5.274c-.085 0-.255-.085-.424-.085h-.425a5.56 5.56 0 0 0-2.124.425c-.68.34-1.189.681-1.614 1.276a6.119 6.119 0 0 0-1.02 1.787c-.254.68-.339 1.36-.339 2.126 0 .34 0 .595.085.936.085.255.169.595.339.765.17.255.34.425.595.596.085.255.425.255.765.255zM198.618 100.516c-.679 0-1.359-.086-1.869-.341-.509-.17-.934-.51-1.274-.85a3.203 3.203 0 0 1-.765-1.276 4.846 4.846 0 0 1-.254-1.531c0-1.02.17-1.957.424-2.807.255-.85.68-1.701 1.275-2.382a6.273 6.273 0 0 1 1.954-1.7c.764-.426 1.699-.596 2.633-.596.595 0 1.105.085 1.444.255.425.17.765.34 1.02.595.255.255.425.51.594.85.085.341.17.681.17 1.022 0 .68-.085 1.19-.339 1.7-.255.426-.51.851-.935 1.106-.425.34-.849.51-1.359.681-.51.17-1.105.34-1.614.425-.595.085-1.105.17-1.699.17-.595 0-1.105.085-1.614.085V96.348c0 .34 0 .595.085.935.084.255.254.51.424.766.17.255.51.425.85.51.34.085.849.17 1.444.17.255 0 .51 0 .85-.085.254-.085.594-.085.849-.17s.51-.17.68-.255c.17-.085.34-.17.424-.255l.17 1.616c-.254.17-.764.34-1.359.51-.595.17-1.359.426-2.209.426zm-2.039-6.04c.85 0 1.53-.085 2.209-.17.68-.085 1.275-.17 1.699-.425.51-.17.85-.425 1.105-.766a2.09 2.09 0 0 0 .424-1.275c0-.085 0-.255-.084-.426-.085-.17-.17-.255-.255-.425-.085-.085-.255-.255-.51-.255-.17-.085-.51-.085-.765-.085-.509 0-.934.085-1.359.34-.425.17-.764.51-1.104.85-.34.34-.595.766-.85 1.192-.17.51-.34.935-.51 1.445zM211.022 89.118h.594c.255 0 .425 0 .595.085.17 0 .425.085.595.085.17 0 .255.085.34.085l-.595 1.701c-.255-.085-.595-.17-.935-.255-.339-.085-.679-.085-1.019-.085-.255 0-.595 0-.85.085-.254 0-.509.085-.764.17l-2.209 9.271h-1.954l2.549-10.462 1.784-.51c.594-.17 1.274-.17 1.869-.17zM214.504 100.26h-1.954l2.549-10.462c.679-.17 1.359-.34 2.124-.51.764-.085 1.444-.17 2.038-.17.595 0 1.19.085 1.615.255.424.17.849.425 1.104.68.255.34.51.68.595 1.106.169.425.169.85.169 1.361 0 .34 0 .68-.084 1.02-.085.341-.085.681-.17 1.106l-1.36 5.614h-1.954l1.275-5.188c.085-.425.17-.766.255-1.191.085-.425.17-.766.17-1.19 0-.596-.17-1.022-.425-1.362-.34-.34-.85-.595-1.699-.595-.34 0-.68 0-1.02.085-.34 0-.594.085-.849.17l-2.379 9.271zM232.514 98.815c.424 0 .849-.085 1.274-.17.425-.085.765-.255 1.104-.425.34-.17.595-.51.85-.85.17-.341.34-.767.34-1.277 0-.34-.085-.68-.17-.935-.17-.256-.34-.51-.51-.68-.255-.171-.51-.426-.849-.596-.34-.17-.68-.34-1.02-.596-.34-.17-.68-.34-.934-.51-.34-.17-.595-.425-.85-.766-.255-.255-.51-.595-.595-1.02-.17-.425-.254-.85-.254-1.446s.084-1.191.339-1.701.595-1.021 1.105-1.361c.509-.426 1.019-.68 1.784-.85.679-.171 1.444-.341 2.378-.341.425 0 .85 0 1.19.085.34.085.764.17 1.019.255.255.085.595.17.85.34.255.085.425.17.509.256l-.934 1.616c-.255-.17-.595-.34-1.104-.51-.51-.17-1.105-.256-1.869-.256-.425 0-.85.085-1.275.17-.424.085-.679.255-1.019.425-.255.17-.51.426-.68.766-.17.34-.255.68-.255 1.106 0 .34.085.68.17.935.085.256.255.426.425.68.17.171.425.341.765.511.254.17.594.34.934.51.425.17.85.426 1.189.681.34.255.68.51.935.765.255.256.51.596.68 1.021.169.425.254.85.254 1.446 0 .766-.169 1.446-.424 2.042-.34.595-.68 1.105-1.275 1.446-.509.425-1.104.68-1.869.85-.679.17-1.529.255-2.378.255-.595 0-1.105 0-1.529-.085-.425-.085-.85-.17-1.19-.255-.34-.085-.594-.255-.849-.34a1.308 1.308 0 0 1-.51-.34l.934-1.617c.255.17.68.426 1.275.596.425 0 1.189.17 2.039.17zM243.557 100.516c-1.019 0-1.784-.255-2.293-.68-.51-.426-.765-1.106-.765-2.042 0-.595.085-1.276.255-2.211l2.209-9.357 2.038-.34-.849 3.402h3.738l-.425 1.617h-3.738l-1.189 4.848c-.17.68-.255 1.19-.255 1.7 0 .426.085.766.34 1.022.255.17.679.34 1.274.34.425 0 .765-.085 1.189-.17.425-.17.68-.255.935-.34l.17 1.615c-.17.086-.595.256-1.105.426-.339.085-.934.17-1.529.17zM255.281 100.345c-.085-.17-.17-.34-.17-.51-.085-.17-.085-.425-.17-.595-.34.255-.679.595-1.274.85a4.323 4.323 0 0 1-1.869.425 4.943 4.943 0 0 1-1.614-.255c-.425-.17-.765-.51-1.105-.85-.254-.34-.509-.766-.594-1.276-.17-.51-.17-1.02-.17-1.531 0-.936.17-1.871.51-2.722.339-.936.764-1.701 1.444-2.382.594-.68 1.444-1.275 2.378-1.7.935-.426 2.039-.681 3.314-.681.339 0 .849 0 1.359.085s.934.255 1.274.425l-1.699 6.635c-.085.34-.17.595-.17.935-.085.255-.085.596-.085.936 0 .34 0 .68.085.936l.255 1.02-1.699.255zm-3.143-1.53c.594 0 1.104-.086 1.529-.34.425-.256.764-.511 1.104-.851 0-.256 0-.51.085-.766 0-.255.085-.51.17-.766l1.274-5.188c-.085 0-.169-.085-.339-.085h-.425a5.56 5.56 0 0 0-2.124.425c-.68.34-1.189.68-1.614 1.191a6.12 6.12 0 0 0-1.02 1.786c-.254.68-.339 1.361-.339 2.127 0 .255 0 .595.085.85s.17.596.339.766c.17.255.34.425.595.595 0 .255.34.255.68.255zM263.012 100.516c-1.019 0-1.784-.255-2.294-.68-.509-.426-.764-1.106-.764-2.042 0-.595.085-1.276.255-2.211l2.208-9.357 2.039-.34-.849 3.402h3.738l-.425 1.617h-3.738l-1.189 4.848c-.17.68-.255 1.19-.255 1.7 0 .426.085.766.34 1.022.254.255.679.34 1.274.34.425 0 .764-.085 1.189-.17.425-.17.68-.255.935-.34l.17 1.615c-.17.086-.595.256-1.105.426-.34.085-.934.17-1.529.17zM271.932 100.516c-.679 0-1.359-.086-1.869-.341-.509-.17-.934-.51-1.274-.85a3.203 3.203 0 0 1-.765-1.276 4.846 4.846 0 0 1-.254-1.531c0-1.02.17-1.957.424-2.807.255-.85.68-1.701 1.275-2.382a6.273 6.273 0 0 1 1.954-1.7c.764-.426 1.699-.596 2.633-.596.595 0 1.105.085 1.444.255.425.17.765.34 1.02.595.255.255.425.51.594.85.085.341.17.681.17 1.022 0 .68-.085 1.19-.339 1.7-.255.426-.51.851-.935 1.106-.425.34-.849.51-1.359.681-.51.17-1.105.34-1.614.425-.595.085-1.105.17-1.699.17-.595 0-1.105.085-1.614.085V96.348c0 .34 0 .595.085.935.084.255.254.51.424.766.17.255.51.425.85.51.34.085.849.17 1.444.17.255 0 .51 0 .85-.085.254-.085.594-.085.849-.17s.51-.17.68-.255c.17-.085.339-.17.424-.255l.17 1.616c-.255.17-.764.34-1.359.51-.595.34-1.359.426-2.209.426zm-1.954-6.04c.85 0 1.53-.085 2.209-.17.68-.085 1.274-.17 1.699-.425.51-.17.85-.425 1.105-.766.254-.34.424-.765.424-1.275 0-.085 0-.255-.085-.426-.085-.17-.169-.255-.254-.425-.085-.085-.255-.255-.51-.255-.17-.085-.51-.085-.765-.085-.509 0-.934.085-1.359.34-.425.17-.765.51-1.104.85-.34.34-.595.766-.85 1.192-.255.51-.425.935-.51 1.445zM286.884 100.346h-.934c-.34 0-.68 0-1.02-.085-.339 0-.679-.085-1.019-.085-.34-.085-.595-.085-.85-.17l3.398-14.12a7.24 7.24 0 0 1 1.954-.255c.68-.085 1.36-.085 1.954-.085.68 0 1.36.085 1.954.17.595.085 1.105.34 1.529.596.425.255.765.595 1.02 1.02.255.425.34.936.34 1.531 0 .85-.255 1.616-.765 2.297-.51.68-1.189 1.106-2.124 1.446.595.255 1.105.595 1.444 1.02.34.426.595 1.021.595 1.702 0 .935-.17 1.786-.595 2.466a4.88 4.88 0 0 1-1.614 1.616c-.679.426-1.444.681-2.378.851-.85 0-1.869.085-2.889.085zm-.17-6.89l-1.189 5.189c.17 0 .425.085.68.085h1.189c.51 0 1.104 0 1.614-.085.595-.085 1.104-.255 1.614-.425.51-.256.935-.596 1.19-.936.339-.425.509-1.02.509-1.701 0-.68-.255-1.191-.764-1.531-.51-.34-1.275-.51-2.379-.51h-2.464v-.086zm.425-1.616h1.954c.425 0 .935 0 1.444-.085.51-.085.935-.255 1.359-.425.425-.17.765-.51 1.02-.85.255-.34.425-.766.425-1.362 0-.68-.255-1.19-.765-1.53-.51-.256-1.359-.426-2.464-.426h-1.104c-.34 0-.595.085-.68.085l-1.189 4.593zM303.365 100.345c-.085-.17-.17-.34-.17-.51-.085-.17-.085-.425-.17-.595-.34.255-.68.595-1.274.85-.51.255-1.19.425-1.869.425a4.939 4.939 0 0 1-1.614-.255c-.425-.17-.765-.51-1.105-.85-.255-.34-.51-.766-.594-1.276-.17-.51-.17-1.02-.17-1.531 0-.936.17-1.871.509-2.722.34-.936.765-1.701 1.445-2.382.594-.68 1.444-1.275 2.378-1.7.935-.426 2.039-.681 3.313-.681.34 0 .85 0 1.36.085.509.085.934.255 1.274.425l-1.614 6.55c-.085.34-.17.595-.17.935-.085.255-.085.596-.085.936 0 .34 0 .68.085.935l.255 1.021-1.784.34zm-3.143-1.53c.594 0 1.104-.086 1.529-.34.424-.256.764-.511 1.104-.851 0-.256 0-.51.085-.766 0-.255.085-.51.17-.766l1.274-5.188c-.085 0-.17-.085-.34-.085h-.424c-.765 0-1.53.17-2.124.425-.68.34-1.19.68-1.614 1.191a6.12 6.12 0 0 0-1.02 1.786c-.255.68-.34 1.361-.34 2.127 0 .255 0 .595.085.85s.17.596.34.766c.17.255.34.425.595.595 0 .255.34.255.68.255zM309.313 100.26h-1.954l2.549-10.462c.679-.17 1.359-.34 2.124-.51.764-.085 1.444-.17 2.039-.17.594 0 1.189.085 1.614.255.424.17.849.425 1.104.68.255.34.51.68.595 1.106.17.425.17.85.17 1.361 0 .34 0 .68-.085 1.02-.085.341-.085.681-.17 1.106l-1.359 5.614h-1.954l1.274-5.188c.085-.425.17-.766.255-1.191.085-.425.17-.766.17-1.19 0-.596-.17-1.022-.425-1.362-.34-.34-.85-.595-1.699-.595-.34 0-.68 0-1.02.085-.339 0-.594.085-.849.17l-2.379 9.271zM318.912 100.261l3.823-15.906 2.039-.34-2.379 9.696c.425-.34.935-.68 1.444-1.105.51-.426.935-.766 1.36-1.191.424-.426.849-.766 1.189-1.106.34-.34.68-.68.934-.936h2.294c-.255.34-.679.766-1.104 1.191-.425.425-.935.936-1.444 1.361l-1.53 1.276c-.509.425-.934.765-1.359 1.106.34.34.765.765 1.105 1.275.424.51.764 1.021 1.104 1.532.34.51.68 1.105.934 1.616.255.51.51 1.105.765 1.531h-2.124c-.51-1.106-1.104-2.212-1.784-3.147-.679-.936-1.359-1.702-2.124-2.297l-1.359 5.444h-1.784zM109.673 100.261l1.359-5.87c-.51-1.445-1.019-2.976-1.529-4.422a41.549 41.549 0 0 1-1.274-4.338h2.208c.255 1.106.595 2.297.935 3.487.34 1.191.679 2.297 1.104 3.403a119.852 119.852 0 0 0 2.804-3.403 71.328 71.328 0 0 0 2.548-3.487h2.294a73.485 73.485 0 0 1-3.313 4.338c-1.19 1.446-2.379 2.892-3.738 4.423l-1.359 5.869h-2.039zM121.396 100.516c-1.189 0-2.039-.341-2.719-1.021-.679-.68-.934-1.616-.934-2.807 0-.85.085-1.701.34-2.552.255-.935.594-1.7 1.104-2.466.51-.766 1.189-1.361 1.954-1.872.765-.51 1.784-.765 2.888-.765 1.19 0 2.039.34 2.719 1.02.679.68 1.019 1.617 1.019 2.807 0 .85-.085 1.701-.339 2.552a8.111 8.111 0 0 1-1.105 2.467c-.51.765-1.189 1.36-1.954 1.871-.849.51-1.869.766-2.973.766zm.34-1.702c.594 0 1.189-.17 1.699-.51.509-.34.934-.85 1.274-1.36.34-.596.595-1.192.765-1.872.169-.68.254-1.361.254-2.041 0-.681-.169-1.276-.424-1.702-.34-.425-.85-.595-1.614-.595-.595 0-1.19.17-1.699.51-.51.34-.935.85-1.275 1.361a7.22 7.22 0 0 0-.764 1.871 8.25 8.25 0 0 0-.255 1.957c0 .68.17 1.276.425 1.7.339.511.849.681 1.614.681zM132.865 100.516c-.595 0-1.104-.085-1.529-.255a2.319 2.319 0 0 1-1.02-.765c-.255-.34-.424-.68-.594-1.106-.17-.425-.17-.85-.17-1.36 0-.341 0-.767.085-1.107.085-.34.17-.68.255-1.105l1.359-5.614h1.954l-1.275 5.188c-.085.34-.169.68-.254 1.106-.085.425-.17.85-.17 1.276 0 .255 0 .51.085.765.085.256.17.426.254.596.17.17.34.34.51.425.255.085.51.17.85.17.594 0 1.104-.17 1.614-.425.425-.255.849-.596 1.104-.936 0-.255 0-.425.085-.68 0-.255.085-.51.17-.766l1.614-6.72h1.954l-1.699 6.89c-.085.34-.17.596-.17.936-.085.34-.085.596-.085.936 0 .34 0 .68.085.935l.255 1.021-1.699.255c-.085-.17-.17-.34-.17-.51-.085-.17-.085-.425-.17-.596-.17.17-.34.256-.51.426-.169.17-.424.255-.764.425-.255.085-.595.255-.935.34-.254.17-.594.255-1.019.255zM146.712 89.033h.595c.17 0 .424 0 .594.085.17 0 .425.085.595.085.17 0 .255.085.34.085l-.595 1.701c-.255-.085-.595-.17-.934-.255-.34-.085-.68-.085-1.02-.085-.255 0-.594 0-.849.085s-.51.085-.765.17l-2.209 9.271h-1.954l2.549-10.547 1.784-.51c.595 0 1.189-.085 1.869-.085z"/>
    </g>
</svg>
