<svg xmlns="http://www.w3.org/2000/svg" width="388" height="102" fill="none" viewBox="0 0 388 102">
    <mask id="a" width="505" height="105" x="-38" y="0" maskUnits="userSpaceOnUse">
        <path fill="#C4C4C4" d="M-37.085 0h503.154v104.101H-37.085z"/>
    </mask>
    <g fill="#fff" mask="url(#a)">
        <path d="M115.217 21.98l-7.568 17.806h3.827l1.615-4.004h7.653l1.616 4.004h3.911l-7.568-17.806h-3.486zm-.85 10.48l2.466-5.965 2.466 5.964h-4.932zM129.588 25.388h9.438l-9.778 11.586v2.812h14.625v-3.323h-9.864l9.864-11.586v-2.812h-14.285v3.323zM154.842 21.81c-3.486 0-5.867 1.363-7.483 3.237l2.381 2.386c1.446-1.534 2.976-2.215 5.102-2.215 2.381 0 4.422 1.448 4.932 4.089h-13.265c0 .426-.085.681-.085 1.193v.085c0 5.026 2.806 9.542 8.588 9.542 5.102 0 8.758-4.09 8.758-9.116v-.085c.085-5.453-3.826-9.116-8.928-9.116zm.255 14.909c-2.636 0-4.252-1.79-4.592-4.26h9.354c-.51 2.47-2.296 4.26-4.762 4.26zM181.968 27.944c0-1.704-.511-3.067-1.446-4.005-1.19-1.192-2.891-1.789-5.102-1.789h-7.993v17.636h3.742v-5.708h3.231l3.911 5.708h4.337l-4.422-6.39c2.211-.852 3.742-2.64 3.742-5.452zm-6.803 2.726h-4.082v-5.197h3.997c1.956 0 3.146.937 3.146 2.556v.085c0 1.534-1.19 2.556-3.061 2.556zM197.698 30.5c1.275-.682 2.38-1.79 2.38-3.834v-.085c0-1.193-.425-2.215-1.19-2.982-1.02-1.023-2.636-1.534-4.592-1.534h-8.078v17.636h8.333c3.997 0 6.548-1.62 6.548-4.857v-.085c0-2.3-1.361-3.493-3.401-4.26zm-7.908-5.112h3.996c1.701 0 2.636.681 2.636 1.874v.085c0 1.363-1.105 1.96-2.891 1.96h-3.741v-3.92zm7.567 9.03c0 1.364-1.105 2.045-2.891 2.045h-4.761v-4.09h4.591c2.126 0 3.061.768 3.061 2.046zM211.219 21.98l-7.568 17.806h3.826l1.616-4.004h7.653l1.615 4.004h3.912l-7.568-17.806h-3.486zm-.851 10.48l2.466-5.965 2.466 5.964h-4.932zM228.564 29.307l-4.336-7.242h-4.337l6.803 10.735v6.986h3.656v-7.071l6.888-10.65h-4.252l-4.422 7.242zM246.846 36.634c-3.061 0-5.272-2.556-5.272-5.708v-.085c0-3.068 2.211-5.623 5.272-5.623 1.786 0 3.231.766 4.592 2.044l2.38-2.726c-1.615-1.619-3.656-2.726-6.972-2.726-5.357 0-9.184 4.09-9.184 9.116v.085c0 5.026 3.827 9.03 9.014 9.03 3.401 0 5.357-1.192 7.228-3.152l-2.381-2.385c-1.361 1.278-2.551 2.13-4.677 2.13zM263.767 21.98l-7.568 17.806h3.827l1.615-4.004h7.653l1.616 4.004h3.911l-7.568-17.806h-3.486zm-.85 10.48l2.466-5.965 2.465 5.964h-4.931zM289.702 22.065v11.16l-8.503-11.16h-3.401v17.72h3.656v-11.5l8.758 11.5h3.146v-17.72h-3.656zM120.149 58.444c1.276-.682 2.381-1.875 2.381-3.92 0-1.192-.425-2.214-1.19-3.066-1.021-1.023-2.636-1.534-4.677-1.534h-8.248v17.891h8.418c3.996 0 6.717-1.619 6.717-4.941v-.086c0-2.385-1.36-3.578-3.401-4.344zm-8.078-5.197h3.997c1.7 0 2.636.681 2.636 1.96v.084c0 1.364-1.106 2.045-2.891 2.045h-3.742v-4.09zm7.653 9.2c0 1.364-1.105 2.045-2.891 2.045h-4.762v-4.089h4.677c2.041 0 2.976.767 2.976 2.045zM130.438 60.488h8.589v-3.407h-8.589v-3.834h9.694v-3.323h-13.435v17.891h13.605v-3.408h-9.864v-3.919zM151.696 57.25l-4.421-7.326h-4.422l6.888 10.82v7.071h3.826v-7.156l6.888-10.735h-4.252l-4.507 7.327zM175.761 61.17l-8.589-11.246h-3.486v17.891h3.741V56.143l8.844 11.672h3.231v-17.89h-3.741V61.17zM191.746 49.584c-3.486 0-5.952 1.363-7.568 3.322l2.381 2.47c1.53-1.533 3.061-2.3 5.187-2.3 2.466 0 4.421 1.449 5.017 4.09h-13.435c0 .426-.085.681-.085 1.193v.085c0 5.111 2.806 9.627 8.758 9.627 5.187 0 8.928-4.175 8.928-9.286-.085-5.368-4.081-9.201-9.183-9.201zm.255 15.164c-2.636 0-4.337-1.874-4.677-4.345h9.439c-.51 2.556-2.211 4.345-4.762 4.345zM208.328 49.924h-3.741v17.891h12.754v-3.408h-9.013V49.924zM236.814 49.924h-4.337l-3.911 5.964-3.827-5.964h-4.422l5.953 8.775-6.293 9.116h4.337l4.167-6.304 4.166 6.304h4.422l-6.293-9.201 6.038-8.69zM247.356 49.754l-7.738 18.061h3.827l1.7-4.09h7.738l1.701 4.09h3.911l-7.653-18.061h-3.486zm-.765 10.65l2.551-6.05 2.466 6.05h-5.017zM265.469 49.924h-3.742v17.891h12.755v-3.408h-9.013V49.924zM294.293 58.87c0-5.112-3.912-9.286-9.439-9.286s-9.523 4.174-9.523 9.286v.085c0 5.112 3.911 9.2 9.438 9.2 2.041 0 3.827-.595 5.357-1.533l2.041 1.79 2.381-2.642-1.871-1.618c1.106-1.534 1.616-3.408 1.616-5.282zm-3.912.085c0 .937-.17 1.874-.595 2.64l-2.976-2.725-2.381 2.726 2.976 2.556c-.765.34-1.53.51-2.466.51-3.231 0-5.527-2.64-5.527-5.792v-.085c0-3.153 2.296-5.709 5.527-5.709 3.147 0 5.442 2.642 5.442 5.879zM317.678 58.444c1.276-.682 2.381-1.875 2.381-3.92 0-1.192-.425-2.214-1.19-3.066-1.02-1.023-2.636-1.534-4.677-1.534h-8.248v17.891h8.418c3.997 0 6.718-1.619 6.718-4.941v-.086c0-2.385-1.361-3.578-3.402-4.344zm-8.078-5.197h3.997c1.701 0 2.636.681 2.636 1.96v.084c0 1.364-1.105 2.045-2.891 2.045H309.6v-4.09zm7.738 9.2c0 1.364-1.105 2.045-2.891 2.045h-4.761v-4.089h4.676c1.956 0 2.976.767 2.976 2.045zM330.688 49.754l-7.738 18.061h3.826l1.701-4.09h7.738l1.7 4.09h3.912l-7.653-18.061h-3.486zm-.851 10.65l2.551-6.05 2.466 6.05h-5.017zM356.963 61.17l-8.588-11.246h-3.486v17.891h3.741V56.143l8.844 11.672h3.231v-17.89h-3.742V61.17zM381.113 49.924h-4.592l-7.482 8.094v-8.094h-3.742v17.891h3.742v-5.367l2.21-2.3 5.697 7.667h4.507L373.8 57.506l7.313-7.582zM388 49.924h-3.741v17.891H388v-17.89zM22.278 27.773c.34 2.13.936 4.175 1.7 6.134 1.957-.596 3.912-1.022 5.953-1.192l2.636-.256.255-2.64c.765-8.265 5.102-15.932 12.33-21.896a36.716 36.716 0 0 1 4.847 4.771c2.04-.937 4.166-1.619 6.377-2.215-2.55-3.323-5.697-6.39-9.353-9.116L45.151 0l-1.87 1.363C34.267 7.923 28.485 16.87 26.87 26.666c-1.7.34-3.146.681-4.592 1.107zm-5.612 21.214c1.786 1.278 3.572 2.385 5.527 3.152.936-1.789 2.041-3.493 3.316-5.026l1.701-2.045-1.7-2.045c-5.273-6.39-7.653-14.909-6.718-24.195a35.563 35.563 0 0 1 6.717-.085c.766-2.13 1.786-4.09 2.892-6.049-4.167-.596-8.504-.511-13.01.17l-2.296.341-.34 2.3c-1.7 11.076.51 21.47 6.292 29.563a59.985 59.985 0 0 0-2.38 3.919zM41.07 16.783c-1.275 1.79-2.38 3.578-3.146 5.538 1.786.937 3.486 2.045 5.017 3.323l2.04 1.704 2.041-1.704c6.378-5.282 14.881-7.668 24.15-6.73.255 2.3.255 4.6.085 6.73 2.125.766 4.081 1.789 6.037 2.896.595-4.174.51-8.52-.17-13.035l-.34-2.3-2.296-.34c-11.054-1.704-21.428.51-29.506 6.304a26.703 26.703 0 0 0-3.912-2.386zM27.72 67.9c2.126-.34 4.167-.852 6.123-1.619-.596-1.96-1.02-3.919-1.19-5.963l-.256-2.641-2.636-.256c-8.248-.767-15.9-5.111-21.853-12.353a36.725 36.725 0 0 1 4.762-4.856c-.936-2.045-1.7-4.175-2.211-6.39-3.316 2.556-6.377 5.708-9.098 9.372L0 45.068l1.36 1.874c6.548 9.03 15.476 14.824 25.255 16.443.34 1.533.68 2.982 1.105 4.515zm21.173 5.538c1.276-1.79 2.381-3.578 3.146-5.538-1.785-.937-3.486-2.045-5.017-3.323l-2.04-1.703-2.041 1.703c-6.377 5.283-14.88 7.668-24.149 6.73-.255-2.3-.255-4.6-.085-6.73-2.126-.766-4.082-1.789-6.037-2.981-.595 4.174-.51 8.52.17 13.035l.34 2.3 2.296.34c11.054 1.704 21.428-.51 29.506-6.304 1.275.937 2.55 1.704 3.911 2.47zm39.71-30.244c-6.547-9.03-15.476-14.824-25.254-16.443a37.294 37.294 0 0 0-1.02-4.43c-2.127.34-4.252.852-6.123 1.619.595 1.96 1.02 3.919 1.19 5.963l.255 2.641 2.636.256c8.248.767 15.901 5.112 21.854 12.353a36.723 36.723 0 0 1-4.762 4.856c.935 2.045 1.615 4.175 2.21 6.39 3.317-2.556 6.378-5.708 9.099-9.371l1.36-1.875-1.445-1.96zm-15.306-2.045c-1.785-1.278-3.571-2.385-5.527-3.152-.935 1.789-2.04 3.493-3.316 5.026l-1.7 2.045 1.7 2.045c5.272 6.39 7.653 14.909 6.718 24.195a35.563 35.563 0 0 1-6.718.085c-.765 2.13-1.786 4.09-2.891 6.049 4.166.596 8.503.511 13.01-.17l2.296-.341.34-2.3c1.7-11.076-.51-21.47-6.293-29.563.85-1.193 1.616-2.556 2.381-3.919zm-5.612 21.213c-.34-2.13-.85-4.26-1.615-6.134-1.956.597-3.912 1.023-5.953 1.193l-2.636.256-.255 2.64c-.765 8.265-5.102 15.932-12.33 21.896a36.727 36.727 0 0 1-4.846-4.771c-2.04.937-4.167 1.619-6.377 2.215 2.55 3.323 5.697 6.39 9.353 9.116l1.87 1.363 1.871-1.363c9.014-6.56 14.796-15.506 16.411-25.303 1.616-.34 3.062-.681 4.507-1.108zM124.401 89.54c-.255.34-.51.681-.85 1.192-.34.512-.68 1.023-1.106 1.62-.425.596-.765 1.192-1.19 1.873-.425.597-.85 1.278-1.19 1.875-.426.596-.766 1.193-1.106 1.704-.34.51-.595.937-.85 1.278h-1.616c-.085-.341-.17-.767-.255-1.278-.085-.511-.17-1.108-.34-1.704-.085-.597-.255-1.193-.34-1.874-.085-.597-.255-1.278-.34-1.875-.085-.596-.255-1.107-.34-1.618-.085-.512-.17-.852-.256-1.193-.595 1.789-1.19 3.663-1.7 5.623a118.515 118.515 0 0 0-1.616 5.878h-1.956l1.021-3.834c.34-1.278.765-2.555 1.105-3.748.425-1.278.766-2.47 1.191-3.664.425-1.192.765-2.3 1.105-3.322h1.956c.17.596.34 1.363.51 2.215.17.852.34 1.704.595 2.64.17.938.34 1.875.51 2.727.171.937.256 1.704.426 2.47.51-.766 1.02-1.618 1.7-2.47a52.048 52.048 0 0 1 1.871-2.726 69.77 69.77 0 0 1 1.786-2.641c.595-.852 1.105-1.534 1.53-2.215h1.956c-.255 2.385-.595 4.77-.935 7.241-.426 2.471-.851 4.942-1.276 7.327h-2.041c.426-2.045.766-4.004 1.191-5.878.34-1.96.595-3.834.85-5.623zM131.374 101.211c-.596 0-1.106-.085-1.531-.256a2.322 2.322 0 0 1-1.02-.766c-.255-.341-.425-.682-.595-1.108-.085-.426-.171-.852-.171-1.363 0-.34 0-.767.086-1.108.085-.34.17-.681.255-1.107l1.36-5.623h1.956l-1.276 5.197c-.085.34-.17.681-.255 1.108-.085.425-.17.851-.17 1.277 0 .256 0 .511.085.767s.17.426.255.597c.17.17.34.34.511.425.255.086.51.17.85.17.595 0 1.105-.17 1.615-.425.426-.256.851-.596 1.106-.937 0-.256 0-.426.085-.682 0-.255.085-.511.17-.767l1.616-6.73h1.955l-1.7 6.9c-.085.342-.17.597-.17.938-.085.34-.085.596-.085.937 0 .34 0 .682.085.937l.255 1.023-1.701.255c-.085-.17-.17-.341-.17-.511-.085-.17-.085-.426-.17-.596-.17.17-.34.255-.51.426-.17.17-.425.255-.766.426-.255.085-.595.255-.935.34-.255.256-.68.256-1.02.256zm1.275-13.205c-.34 0-.595-.085-.765-.256-.17-.17-.34-.426-.34-.767 0-.425.17-.766.425-1.022.255-.255.595-.426.935-.426.34 0 .596.085.766.34.255.171.34.512.34.853 0 .426-.17.767-.425 1.022-.341.17-.596.256-.936.256zm3.997 0c-.34 0-.596-.085-.766-.256-.17-.17-.34-.426-.34-.767 0-.425.17-.766.425-1.022.256-.255.596-.426.936-.426.34 0 .595.085.765.34.255.171.34.512.34.853 0 .426-.17.767-.425 1.022-.34.17-.595.256-.935.256zM146.423 101.126c-.085-.171-.17-.341-.17-.511-.085-.171-.085-.426-.17-.597-.34.256-.68.597-1.275.852a4.318 4.318 0 0 1-1.871.426 4.949 4.949 0 0 1-1.615-.255c-.511-.171-.766-.512-1.106-.852-.255-.341-.51-.767-.595-1.278-.17-.511-.17-1.023-.17-1.619 0-.937.17-1.874.51-2.726.34-.937.765-1.704 1.446-2.386.595-.681 1.445-1.278 2.38-1.704.936-.425 2.041-.681 3.317-.681.34 0 .85 0 1.36.085.51.085.936.256 1.276.426l-1.616 6.645c-.085.341-.17.597-.17.937-.085.256-.085.597-.085.938 0 .34 0 .681.085.937l.255 1.022-1.786.341zm-3.146-1.534c.595 0 1.106-.085 1.531-.34a5.458 5.458 0 0 0 1.105-.852c0-.256 0-.512.085-.767 0-.256.085-.511.17-.767l1.276-5.197c-.085 0-.17-.085-.34-.085h-.426c-.765 0-1.53.17-2.125.426-.681.34-1.191.681-1.616 1.193a6.131 6.131 0 0 0-1.02 1.789c-.255.681-.34 1.363-.34 2.13 0 .255 0 .596.085.852.085.34.17.596.34.766.17.256.34.426.595.597-.085.17.255.255.68.255zM153.057 99.592c.255 0 .595 0 .85-.085.34-.085.595-.17.765-.256.256-.085.426-.255.596-.51.17-.256.255-.512.255-.853 0-.17 0-.426-.085-.596-.085-.17-.17-.34-.34-.426-.17-.17-.34-.255-.596-.426-.255-.17-.51-.255-.85-.426-.34-.17-.595-.34-.85-.426-.255-.17-.51-.34-.68-.511-.171-.17-.341-.426-.511-.767a3.184 3.184 0 0 1-.17-1.022c0-1.022.34-1.874 1.106-2.556.765-.596 1.87-.937 3.316-.937.68 0 1.275.085 1.786.17.51.17.85.256 1.02.341l-.765 1.619a3.69 3.69 0 0 0-.936-.341c-.425-.085-.935-.17-1.445-.17-.255 0-.51 0-.765.085l-.766.255c-.255.17-.425.341-.51.511-.17.256-.17.512-.17.767 0 .341.17.682.425.937.255.256.765.512 1.361.767.34.17.68.34.935.511.255.17.51.341.765.597.17.255.34.51.425.766.085.256.17.682.17 1.023 0 .596-.085 1.107-.34 1.533-.255.426-.51.852-.935 1.108-.425.255-.85.511-1.446.681-.51.171-1.105.256-1.785.256-.51 0-.936 0-1.276-.085-.425-.085-.68-.171-1.02-.256-.255-.085-.51-.17-.68-.255-.17-.086-.34-.171-.425-.256l.765-1.619c.085.086.255.086.425.17.17.086.425.171.595.256.255.085.51.17.851.17.34.256.595.256.935.256zM160.965 100.955h-1.956l2.636-10.905h1.956l-2.636 10.905zm2.211-12.864c-.34 0-.595-.085-.85-.256-.256-.17-.341-.51-.341-.852 0-.425.171-.766.426-1.022.255-.255.595-.426.935-.426.34 0 .595.085.85.34.255.171.34.512.34.853 0 .426-.17.767-.425 1.022-.255.17-.595.341-.935.341zM170.489 89.795h.595c.17 0 .425 0 .595.085.17 0 .425.085.595.085.17 0 .255.085.34.085l-.595 1.704c-.255-.085-.595-.17-.935-.255-.34-.085-.681-.085-1.021-.085-.255 0-.595 0-.85.085-.255 0-.51.085-.765.17l-2.211 9.286h-1.956l2.551-10.478 1.786-.512c.595-.085 1.19-.17 1.871-.17zM184.179 86.217c2.126 0 3.741.511 4.847 1.534 1.105 1.022 1.615 2.385 1.615 4.09 0 1.192-.17 2.385-.595 3.492a7.175 7.175 0 0 1-1.786 2.982c-.765.852-1.785 1.534-3.061 2.045-1.275.511-2.721.766-4.421.766-.596 0-1.191 0-1.871-.085-.68-.085-1.276-.17-1.786-.255l3.401-14.143a6.626 6.626 0 0 1 1.871-.255c.595-.086 1.191-.17 1.786-.17zm-.17 1.79c-1.021 0-1.701 0-1.871.085l-2.721 11.245c.085 0 .34.085.595.085h1.276c1.105 0 2.126-.17 2.976-.596a6.804 6.804 0 0 0 2.296-1.533c.595-.682 1.105-1.449 1.445-2.386.34-.937.51-1.96.51-2.982 0-1.192-.34-2.215-1.105-2.896-.765-.682-1.871-1.023-3.401-1.023zM195.573 101.211c-1.19 0-2.041-.341-2.721-1.022-.68-.682-.935-1.62-.935-2.812 0-.852.085-1.704.34-2.556a8.13 8.13 0 0 1 1.105-2.47c.511-.767 1.191-1.363 1.956-1.875.765-.51 1.786-.766 2.891-.766 1.106 0 2.041.34 2.721 1.022.68.682.936 1.619.936 2.811 0 .852-.085 1.704-.341 2.556a8.13 8.13 0 0 1-1.105 2.47c-.51.768-1.19 1.364-1.956 1.875-.765.597-1.785.767-2.891.767zm.34-1.619a3.06 3.06 0 0 0 1.701-.51c.51-.342.935-.853 1.275-1.364a7.21 7.21 0 0 0 .766-1.874c.17-.682.255-1.363.255-1.96 0-.681-.17-1.278-.425-1.704-.34-.426-.851-.596-1.616-.596-.595 0-1.19.17-1.701.511-.51.34-.935.852-1.275 1.363a7.242 7.242 0 0 0-.765 1.874 8.276 8.276 0 0 0-.255 1.96c0 .682.17 1.278.425 1.704.34.34.85.596 1.615.596zm.936-11.586c-.34 0-.596-.085-.766-.256-.17-.17-.34-.426-.34-.767 0-.425.17-.766.425-1.022.256-.255.596-.426.936-.426.34 0 .595.085.765.34.255.171.34.512.34.853 0 .426-.17.767-.425 1.022-.34.17-.595.256-.935.256zm3.996 0c-.34 0-.595-.085-.765-.256-.17-.17-.34-.426-.34-.767 0-.425.17-.766.425-1.022.255-.255.595-.426.935-.426.34 0 .596.085.766.34.255.171.34.512.34.853 0 .426-.17.767-.425 1.022-.341.17-.596.256-.936.256zM205.351 100.956c-.17-.681-.34-1.533-.51-2.385-.17-.852-.255-1.79-.426-2.641-.085-.937-.255-1.875-.34-2.897-.085-1.022-.17-1.96-.17-2.982h1.956c0 .682.085 1.449.085 2.215.085.767.085 1.534.17 2.3.085.767.17 1.534.255 2.216.085.681.17 1.363.34 1.96.426-.512.851-1.194 1.276-1.875.425-.682.85-1.448 1.275-2.3.425-.767.766-1.619 1.191-2.386.34-.766.595-1.533.85-2.215h1.956c-.34.937-.68 1.875-1.191 2.897a89.872 89.872 0 0 1-1.53 2.896c-.595.938-1.106 1.875-1.701 2.727-.595.852-1.19 1.704-1.786 2.385h-1.7v.085zM215.896 96.185c-.085.34-.17.596-.17.937-.086.255-.086.596-.086.852 0 .511.085.852.341 1.107.255.256.68.426 1.275.512l-.425 1.618c-.595 0-1.02-.085-1.446-.255-.425-.171-.68-.341-.935-.682a2.029 2.029 0 0 1-.51-.937 5.039 5.039 0 0 1-.17-1.193c0-.34 0-.681.085-1.022.085-.34.17-.682.255-1.108l2.636-10.99 2.041-.34-2.891 11.5zM224.483 89.795c.68 0 1.36.085 1.87.34.511.171.936.512 1.276.853.34.34.595.766.765 1.278.17.51.255 1.022.255 1.533 0 1.022-.17 1.96-.425 2.811a5.879 5.879 0 0 1-1.275 2.386 6.307 6.307 0 0 1-1.956 1.704c-.765.426-1.701.596-2.636.596-.595 0-1.105-.085-1.446-.255-.425-.171-.765-.341-1.02-.597a3.05 3.05 0 0 1-.595-.852c-.085-.34-.17-.681-.17-1.022 0-.682.085-1.193.34-1.704.255-.426.595-.852.935-1.108.425-.34.851-.51 1.361-.681.51-.17 1.105-.34 1.615-.426.596-.085 1.106-.17 1.701-.17s1.105-.086 1.616-.086v-.255-.17c0-.341 0-.597-.085-.938-.085-.255-.256-.51-.426-.766-.17-.256-.51-.426-.85-.512a6.09 6.09 0 0 0-1.445-.17c-.256 0-.511 0-.851.085-.255.085-.595.085-.85.17-.255.086-.51.17-.68.256-.17.085-.34.17-.425.256l-.171-1.704c.256-.17.766-.341 1.361-.511.68-.256 1.445-.341 2.211-.341zm2.041 5.963c-.851 0-1.531.086-2.211.17-.681.086-1.276.171-1.701.427-.51.17-.85.426-1.105.767-.255.34-.425.766-.425 1.278 0 .085 0 .255.085.425.085.17.17.256.255.426.085.086.255.256.51.256.17.085.51.085.765.085.51 0 .935-.085 1.361-.34.425-.17.85-.512 1.105-.852.34-.341.595-.767.85-1.193.17-.426.34-.937.511-1.448zM233.157 101.297c-1.02 0-1.785-.256-2.295-.682-.511-.426-.766-1.108-.766-2.045 0-.596.085-1.278.255-2.215l2.211-9.371 2.041-.34-.85 3.407h3.741l-.425 1.619h-3.571l-1.191 4.856c-.17.681-.255 1.192-.255 1.704 0 .425.085.766.34 1.022.255.17.68.34 1.276.34.425 0 .765-.085 1.19-.17.425-.17.68-.255.935-.34l.17 1.703c-.17.086-.595.256-1.105.426-.425 0-1.02.086-1.701.086zM246.422 101.126h-.935c-.34 0-.681 0-1.021-.085-.34 0-.68-.085-1.02-.085-.34-.085-.595-.085-.85-.17l3.401-14.143a7.231 7.231 0 0 1 1.956-.255c.68-.086 1.36-.086 1.955-.086.681 0 1.361.086 1.956.17.595.086 1.106.342 1.531.597.425.256.765.597 1.02 1.023.255.426.34.937.34 1.533 0 .852-.255 1.619-.765 2.3-.51.682-1.191 1.108-2.126 1.449.595.255 1.105.596 1.446 1.022.34.426.595 1.022.595 1.704 0 .937-.17 1.789-.595 2.47a4.905 4.905 0 0 1-1.616 1.619c-.68.426-1.445.682-2.381.852-.85 0-1.871.085-2.891.085zm-.17-6.986l-1.19 5.197c.17 0 .425.085.68.085h1.19c.51 0 1.106 0 1.701-.085s1.105-.255 1.616-.426c.51-.255.935-.596 1.19-.937.34-.426.51-1.022.51-1.704 0-.681-.255-1.192-.765-1.533-.51-.341-1.276-.511-2.381-.511h-2.551v-.086zm.34-1.618h1.956c.425 0 .935 0 1.445-.086.511-.085.936-.255 1.361-.426.425-.17.765-.51 1.02-.851.255-.341.425-.767.425-1.364 0-.681-.255-1.192-.765-1.533-.51-.256-1.36-.426-2.466-.426h-1.105c-.34 0-.595.085-.68.085l-1.191 4.6zM262.917 101.126c-.085-.171-.17-.341-.17-.511-.085-.171-.085-.426-.17-.597-.34.256-.68.597-1.275.852a4.321 4.321 0 0 1-1.871.426 4.96 4.96 0 0 1-1.616-.255c-.51-.171-.765-.512-1.105-.852-.255-.341-.51-.767-.595-1.278-.17-.511-.17-1.023-.17-1.619 0-.937.17-1.874.51-2.726.34-.937.765-1.704 1.445-2.386.596-.681 1.446-1.278 2.381-1.704.936-.425 2.041-.681 3.317-.681.34 0 .85 0 1.36.085.51.085.935.256 1.276.426l-1.616 6.645c-.085.341-.17.597-.17.937-.085.256-.085.597-.085.938 0 .34 0 .681.085.937l.255 1.022-1.786.341zm-3.146-1.534c.595 0 1.106-.085 1.531-.34a5.458 5.458 0 0 0 1.105-.852c0-.256 0-.512.085-.767 0-.256.085-.511.17-.767l1.276-5.197c-.085 0-.17-.085-.34-.085h-.426c-.765 0-1.53.17-2.125.426-.681.34-1.191.681-1.616 1.193a6.131 6.131 0 0 0-1.02 1.789c-.256.681-.341 1.363-.341 2.13 0 .255 0 .596.085.852.086.34.171.596.341.766.17.256.34.426.595.597 0 .17.34.255.68.255zM268.785 100.955h-1.956l2.551-10.478c.68-.17 1.36-.341 2.126-.512.765-.085 1.445-.17 2.04-.17.596 0 1.191.085 1.616.255.425.17.85.426 1.105.682.256.34.511.682.596 1.108.17.425.17.852.17 1.363 0 .34 0 .681-.085 1.022-.085.34-.085.681-.17 1.108l-1.361 5.622h-1.956l1.276-5.197c.085-.425.17-.766.255-1.192.085-.426.17-.767.17-1.193 0-.596-.17-1.022-.425-1.363-.34-.34-.85-.596-1.701-.596-.34 0-.68 0-1.02.085-.34 0-.595.085-.85.17l-2.381 9.286zM278.479 100.956l3.826-16.017 2.041-.34-2.381 9.712c.425-.341.935-.682 1.446-1.108.51-.426.935-.767 1.36-1.193.425-.426.85-.766 1.191-1.107l.935-.937h2.296c-.255.34-.68.766-1.106 1.192-.425.426-.935.938-1.445 1.364l-1.531 1.277c-.51.426-.935.767-1.36 1.108.34.34.765.767 1.105 1.278.425.511.765 1.022 1.106 1.533.34.511.68 1.108.935 1.62.255.595.51 1.107.765 1.533h-2.126c-.51-1.108-1.105-2.215-1.785-3.153-.681-.937-1.361-1.704-2.126-2.3l-1.361 5.453h-1.785v.085zM291.233 100.955h-1.956l2.636-10.905h1.956l-2.636 10.905zM296.505 100.955h-1.956l2.551-10.478c.68-.17 1.36-.341 2.126-.512.765-.085 1.445-.17 2.04-.17.596 0 1.191.085 1.616.255.425.17.85.426 1.105.682.255.34.511.682.596 1.108.085.425.17.852.17 1.363 0 .34 0 .681-.085 1.022-.085.34-.085.681-.17 1.108l-1.361 5.622h-1.956l1.276-5.197c.085-.425.17-.766.255-1.192.085-.426.17-.767.17-1.193 0-.596-.17-1.022-.425-1.363-.34-.34-.851-.596-1.701-.596-.34 0-.68 0-1.02.085-.34 0-.595.085-.851.17l-2.38 9.286zM308.07 100.955h-1.956l2.636-10.905h1.956l-2.636 10.905zM320.739 91.413c-.425.341-.935.852-1.615 1.534-.68.681-1.446 1.363-2.211 2.13-.765.767-1.446 1.533-2.211 2.3-.68.767-1.275 1.363-1.615 1.96h5.867l-.34 1.618h-8.163l.255-1.278c.425-.596.935-1.278 1.615-2.044.681-.767 1.276-1.534 2.041-2.215.68-.767 1.361-1.449 2.041-2.13a25.576 25.576 0 0 1 1.785-1.619h-5.186l.34-1.619h7.823l-.426 1.363z"/>
    </g>
</svg>
