<svg xmlns="http://www.w3.org/2000/svg" width="267" height="788" fill="none" viewBox="0 0 267 788">
    <mask id="a" width="308" height="791" x="0" y="-3" maskUnits="userSpaceOnUse">
        <path fill="#fff" d="M0-2.841h307.327V788H0z"/>
    </mask>
    <g mask="url(#a)">
        <path fill="url(#b)" d="M134.675 454.348l.313 48.24 26.415 28.263.269 41.543-21.491 23.603.799 122.982 13.398 14.321.248 38.123 1.372-.009-.251-38.741-13.398-14.336-.791-121.731 21.491-23.603-.278-42.778-26.414-28.28-.305-46.989 38.647-42.444-.706-108.686 28.046-30.786-.08-12.317 19.345-21.262-.249-38.234 43.577-47.86-.97-1.055-43.984 48.306.249 38.234-19.345 21.262.08 12.317-28.046 30.802.706 108.67-38.647 42.445z" style="mix-blend-mode:color-dodge"/>
        <path fill="url(#c)" d="M152.728 771.293c.002.367.071.73.204 1.068.132.338.325.645.567.902.242.258.528.461.842.598.315.137.651.205.99.201.337-.002.671-.076.982-.218.311-.142.593-.35.83-.61s.424-.569.551-.907a2.98 2.98 0 0 0 .189-1.068c0-.367-.068-.731-.198-1.07a2.836 2.836 0 0 0-.562-.906 2.568 2.568 0 0 0-.84-.602 2.404 2.404 0 0 0-.988-.208 2.489 2.489 0 0 0-1.823.833 2.928 2.928 0 0 0-.744 1.987z" style="mix-blend-mode:color-dodge"/>
        <path fill="url(#d)" d="M262.224 151.039c.357-.391.813-.66 1.311-.77a2.383 2.383 0 0 1 1.486.149c.471.208.874.563 1.16 1.019.285.456.439.994.443 1.545a2.966 2.966 0 0 1-.423 1.551c-.28.46-.679.819-1.147 1.033a2.387 2.387 0 0 1-1.484.169 2.515 2.515 0 0 1-1.321-.753 2.813 2.813 0 0 1-.568-.9 2.976 2.976 0 0 1-.013-2.136 2.8 2.8 0 0 1 .556-.907z" style="mix-blend-mode:color-dodge"/>
        <path fill="url(#e)" d="M-48.705 139.364l30.002 32.071.148 22.783 36.886 39.484.125 19.188-24.552 26.964.221 34.007 31.106 33.268.34 52.213-23.523 25.817.374 57.47 27.532 29.444.36 55.585-5.829 6.403.234 36.033 14.384 15.391.52 80.03-10.95 12.04.388 59.592 1.373-.009-.383-58.99 10.948-12.025-.528-81.264-14.383-15.391-.226-34.799 5.83-6.402-.37-56.805-27.531-29.459-.366-56.235 23.507-25.817-.347-53.449-31.091-33.284-.213-32.756 24.551-26.964-.132-20.423-36.9-39.484-.149-22.766-30.385-32.528-.971 1.067z" style="mix-blend-mode:color-dodge"/>
        <path fill="url(#f)" d="M27.16 777c.003.368.072.732.204 1.071.133.339.325.647.567.906.241.258.528.463.842.602.315.138.651.209.99.206a2.488 2.488 0 0 0 1.823-.832c.482-.529.75-1.243.745-1.987a2.924 2.924 0 0 0-.775-1.966 2.485 2.485 0 0 0-1.828-.803c-.34 0-.675.073-.987.214a2.57 2.57 0 0 0-.835.608c-.239.261-.427.57-.555.91a2.99 2.99 0 0 0-.19 1.071z" style="mix-blend-mode:color-dodge"/>
        <path fill="url(#g)" d="M1.745 27.623l24.4 26.107.71 109.288 29.149 31.19.285 43.965 22.4 23.968.225 34.719-16.503 18.125.214 32.962 15.517 16.618.264 40.783-9.832 10.798.303 46.609 26.209 28.043.414 63.787-23.304 25.594.285 43.854 30.341 32.466.728 112.184 1.373-.009-.732-112.786-30.341-32.465-.277-42.635 23.304-25.595-.423-65.021-26.208-28.043-.295-45.374 9.832-10.799-.273-42.017-15.516-16.603-.206-31.743 16.503-18.124-.234-35.955-22.399-23.967-.285-43.965-29.15-31.191-.71-109.287-24.81-26.532-.958 1.05z" style="mix-blend-mode:color-dodge"/>
        <path fill="url(#h)" d="M101.68 768.553c.005.743.282 1.454.77 1.976a2.484 2.484 0 0 0 1.833.809c.339-.002.674-.077.986-.22.312-.143.595-.351.832-.613s.424-.573.55-.913c.126-.341.189-.706.185-1.073a2.93 2.93 0 0 0-.765-1.971 2.486 2.486 0 0 0-1.824-.814 2.49 2.49 0 0 0-1.823.832 2.928 2.928 0 0 0-.744 1.987z" style="mix-blend-mode:color-dodge"/>
        <path fill="url(#i)" d="M.486 29.246a2.817 2.817 0 0 1-.566-.902 2.997 2.997 0 0 1-.018-2.137c.127-.34.314-.65.551-.911.237-.262.52-.47.83-.613a2.404 2.404 0 0 1 1.973-.017c.314.138.6.34.84.598.488.52.766 1.228.772 1.969.006.74-.26 1.453-.738 1.981a2.48 2.48 0 0 1-1.815.834 2.479 2.479 0 0 1-1.829-.802z" style="mix-blend-mode:color-dodge"/>
        <path fill="url(#j)" d="M88.631 421.526l.238 36.587 23.002 24.597.537 82.658-20.36 22.361.18 27.896 32.754 35.062.442 68.077 15.384 16.461.212 32.613 1.373-.009-.216-33.231-15.384-16.461-.442-68.077-32.753-35.046-.174-26.692 20.361-22.361-.545-83.862-23.002-24.612-.23-35.337 18.142-19.94-.409-62.979-17.002-18.192-.483-74.315 40.213-44.165-.567-87.344 16.967-18.634-.971-1.039-17.373 19.064.567 87.345-40.213 44.165.491 75.533 17.002 18.192.401 61.76-18.142 19.925z" style="mix-blend-mode:color-dodge"/>
        <path fill="url(#k)" d="M139.122 767.724a3 3 0 0 0 .203 1.071c.132.339.325.647.567.905.241.259.528.463.842.602.315.139.651.209.991.207a2.487 2.487 0 0 0 1.822-.832 2.925 2.925 0 0 0 .744-1.987 2.973 2.973 0 0 0-.204-1.069 2.81 2.81 0 0 0-.566-.902 2.575 2.575 0 0 0-.843-.597 2.39 2.39 0 0 0-.99-.201c-.338 0-.674.072-.986.213a2.563 2.563 0 0 0-.835.609c-.239.26-.427.57-.555.909-.128.34-.193.704-.19 1.072z" style="mix-blend-mode:color-dodge"/>
        <path fill="url(#l)" d="M144.459 94.19a2.532 2.532 0 0 1 1.319-.778 2.398 2.398 0 0 1 1.495.149c.474.209.881.565 1.168 1.024.287.46.443 1 .446 1.555a2.963 2.963 0 0 1-.426 1.56 2.641 2.641 0 0 1-1.154 1.04 2.401 2.401 0 0 1-1.494.168 2.53 2.53 0 0 1-1.328-.76 2.927 2.927 0 0 1-.768-1.974 2.926 2.926 0 0 1 .742-1.984z" style="mix-blend-mode:color-dodge"/>
        <path fill="url(#m)" d="M83.41 620.447l27.355 29.255.463 71.338 18.002 19.247.168 25.901 1.373-.009-.172-26.519-18.002-19.262-.463-71.322-27.767-29.696-.957 1.067z" style="mix-blend-mode:color-dodge"/>
        <path fill="url(#n)" d="M127.5 766.058c.002.368.071.731.203 1.071.133.339.325.646.567.905.241.259.528.463.842.602.315.139.651.209.991.207a2.491 2.491 0 0 0 1.813-.838c.478-.528.744-1.24.739-1.981 0-.367-.068-.731-.198-1.07a2.836 2.836 0 0 0-.562-.906 2.583 2.583 0 0 0-.84-.602 2.389 2.389 0 0 0-1.976.012 2.575 2.575 0 0 0-.835.613 2.843 2.843 0 0 0-.555.913 3.012 3.012 0 0 0-.189 1.074z" style="mix-blend-mode:color-dodge"/>
        <path fill="url(#o)" d="M82.18 621.991a2.863 2.863 0 0 1-.712-1.422c-.102-.54-.055-1.1.137-1.611.19-.51.517-.947.938-1.256.42-.309.917-.475 1.425-.479a2.43 2.43 0 0 1 1.43.461c.425.303.758.736.956 1.244.198.507.252 1.067.157 1.608a2.873 2.873 0 0 1-.694 1.432 2.49 2.49 0 0 1-1.813.822 2.488 2.488 0 0 1-1.823-.799z" style="mix-blend-mode:color-dodge"/>
        <path fill="url(#p)" d="M101.8 427.329l.215 33.073 23.458 25.116.533 82.041-20.201 22.186.119 18.349 19.531 20.883.958-1.051-19.12-20.458-.111-17.115 20.215-22.186-.541-83.275-23.472-25.1-.207-31.854 22.419-24.623-.452-69.66-1.373.009.448 69.027-22.419 24.638z" style="mix-blend-mode:color-dodge"/>
        <path fill="url(#q)" d="M124.034 630.332c.362.387.822.65 1.321.754a2.388 2.388 0 0 0 1.484-.169 2.626 2.626 0 0 0 1.146-1.034c.28-.46.427-.999.423-1.55a2.943 2.943 0 0 0-.443-1.545 2.625 2.625 0 0 0-1.159-1.019 2.383 2.383 0 0 0-1.486-.149c-.498.11-.954.378-1.311.77-.238.26-.425.569-.552.908a2.98 2.98 0 0 0-.189 1.068c.002.366.071.728.203 1.066.131.337.323.643.563.9z" style="mix-blend-mode:color-dodge"/>
        <path fill="url(#r)" d="M121.889 333.819a2.973 2.973 0 0 1 .418-1.564c.279-.465.68-.829 1.15-1.047a2.406 2.406 0 0 1 1.494-.175c.503.103.967.365 1.332.754.366.389.617.887.721 1.43a3.024 3.024 0 0 1-.134 1.622c-.192.515-.52.955-.944 1.267a2.444 2.444 0 0 1-1.434.482 2.483 2.483 0 0 1-1.828-.803 2.92 2.92 0 0 1-.775-1.966z" style="mix-blend-mode:color-dodge"/>
        <path fill="url(#s)" d="M127.461 584.664l.13 19.917 1.372-.009-.125-19.299 13.588-14.939-.274-42.176-1.373.009.27 41.558-13.588 14.939z" style="mix-blend-mode:color-dodge"/>
        <path fill="url(#t)" d="M125.692 604.435c.015.551.18 1.086.474 1.536.294.451.704.797 1.178.997.475.199.993.242 1.49.124.497-.119.95-.393 1.303-.79s.59-.897.682-1.44a3.021 3.021 0 0 0-.167-1.609 2.776 2.776 0 0 0-.96-1.242 2.443 2.443 0 0 0-1.433-.458 2.41 2.41 0 0 0-1.002.225 2.59 2.59 0 0 0-.842.63 2.83 2.83 0 0 0-.55.934c-.124.348-.183.72-.173 1.093z" style="mix-blend-mode:color-dodge"/>
        <path fill="url(#u)" d="M138.897 528.306a2.973 2.973 0 0 1 .426-1.561 2.646 2.646 0 0 1 1.156-1.04 2.406 2.406 0 0 1 1.495-.166c.502.106.964.371 1.328.763.363.391.612.89.713 1.434a3.022 3.022 0 0 1-.142 1.621 2.77 2.77 0 0 1-.951 1.261 2.454 2.454 0 0 1-1.437.474 2.401 2.401 0 0 1-.988-.208 2.568 2.568 0 0 1-.84-.602 2.836 2.836 0 0 1-.562-.906 2.994 2.994 0 0 1-.198-1.07z" style="mix-blend-mode:color-dodge"/>
        <path fill="url(#v)" d="M118.593 444.921l.971 1.039 37.008-40.629-.819-126.164 32.469-35.676-.466-71.734 26.436-29.035-.241-37.11 24.928-27.378-.327-50.424-1.373.009.323 49.807-24.928 27.378.241 37.11-26.436 29.034.466 71.734-32.469 35.676.819 126.164-36.602 40.199z" style="mix-blend-mode:color-dodge"/>
        <path fill="url(#w)" d="M117.328 443.299c-.36.394-.604.895-.7 1.439a3.017 3.017 0 0 0 .156 1.619c.199.511.533.947.96 1.253.427.305.929.466 1.44.463a2.442 2.442 0 0 0 1.434-.482c.423-.311.752-.751.944-1.265a3.021 3.021 0 0 0 .135-1.621 2.887 2.887 0 0 0-.718-1.43 2.485 2.485 0 0 0-1.831-.806 2.484 2.484 0 0 0-1.82.83z" style="mix-blend-mode:color-dodge"/>
        <path fill="url(#x)" d="M235.28 27.974a2.98 2.98 0 0 1 .426-1.56 2.64 2.64 0 0 1 1.153-1.04 2.401 2.401 0 0 1 1.493-.169 2.53 2.53 0 0 1 1.328.759c.364.39.614.887.717 1.43a3.027 3.027 0 0 1-.136 1.62 2.772 2.772 0 0 1-.944 1.264c-.423.31-.922.478-1.433.481a2.49 2.49 0 0 1-1.834-.808 2.928 2.928 0 0 1-.77-1.977z" style="mix-blend-mode:color-dodge"/>
        <path fill="url(#y)" d="M113.914 428.454l.985 1.038 32.846-36.074-.451-69.47-19.34-20.694-.262-40.403 28.219-31.009-.523-80.632-1.373.009.52 80.015-28.22 31.009.27 41.637 19.34 20.695.443 68.235-32.454 35.644z" style="mix-blend-mode:color-dodge"/>
        <path fill="url(#z)" d="M112.606 426.895c-.36.394-.604.895-.7 1.439a3.016 3.016 0 0 0 .156 1.619c.199.512.533.948.96 1.253.428.305.929.467 1.44.463a2.442 2.442 0 0 0 1.434-.482c.423-.311.752-.751.944-1.265a3.02 3.02 0 0 0 .135-1.621 2.883 2.883 0 0 0-.718-1.43 2.49 2.49 0 0 0-1.831-.806 2.484 2.484 0 0 0-1.82.83z" style="mix-blend-mode:color-dodge"/>
        <path fill="url(#A)" d="M152.131 151.374a2.974 2.974 0 0 1 .427-1.561 2.638 2.638 0 0 1 1.156-1.039 2.397 2.397 0 0 1 1.494-.167c.503.106.965.372 1.329.763.363.391.611.89.713 1.434a3.012 3.012 0 0 1-.143 1.621 2.761 2.761 0 0 1-.95 1.261 2.44 2.44 0 0 1-2.425.267 2.57 2.57 0 0 1-.84-.603 2.801 2.801 0 0 1-.562-.906 2.991 2.991 0 0 1-.199-1.07z" style="mix-blend-mode:color-dodge"/>
        <path fill="url(#B)" d="M139.119 272.878l.156 24.033 1.373-.009-.152-23.415 29.453-32.348-.616-94.832 21.535-23.636-.217-33.405 17.14-18.841-.97-1.039-17.547 19.272.217 33.405-21.535 23.635.616 94.833-29.453 32.347z" style="mix-blend-mode:color-dodge"/>
        <path fill="url(#C)" d="M137.392 296.781a2.98 2.98 0 0 0 .44 1.56c.286.461.692.82 1.166 1.031a2.4 2.4 0 0 0 1.498.154 2.527 2.527 0 0 0 1.322-.777 2.88 2.88 0 0 0 .699-1.443 3.034 3.034 0 0 0-.161-1.621 2.767 2.767 0 0 0-.967-1.251 2.438 2.438 0 0 0-1.445-.456 2.472 2.472 0 0 0-1.812.828 2.905 2.905 0 0 0-.74 1.975z" style="mix-blend-mode:color-dodge"/>
        <path fill="url(#D)" d="M205.382 68.034a2.532 2.532 0 0 1 1.319-.777 2.398 2.398 0 0 1 1.495.148c.474.21.881.566 1.168 1.025.287.46.443 1 .446 1.555a2.963 2.963 0 0 1-.426 1.56 2.64 2.64 0 0 1-1.154 1.04 2.398 2.398 0 0 1-1.493.168 2.53 2.53 0 0 1-1.329-.76 2.927 2.927 0 0 1-.768-1.975 2.93 2.93 0 0 1 .742-1.984z" style="mix-blend-mode:color-dodge"/>
        <path fill="url(#E)" d="M100.558 249.634l.395 60.81 15.325 16.398.302 46.498 1.373-.009-.307-47.132-15.325-16.398-.386-59.559 36.253-39.833-.456-70.198-1.372.009.452 69.597-36.254 39.817z" style="mix-blend-mode:color-dodge"/>
        <path fill="url(#F)" d="M114.681 373.209c.004.555.16 1.097.447 1.556.288.459.695.816 1.169 1.024.475.209.996.26 1.497.147.501-.112.96-.384 1.318-.78.359-.395.6-.898.695-1.443a3.008 3.008 0 0 0-.164-1.619 2.756 2.756 0 0 0-.966-1.248 2.443 2.443 0 0 0-1.443-.456 2.488 2.488 0 0 0-1.813.839 2.926 2.926 0 0 0-.74 1.98z" style="mix-blend-mode:color-dodge"/>
        <path fill="url(#G)" d="M134.463 140.359a2.98 2.98 0 0 1 .427-1.562 2.638 2.638 0 0 1 1.156-1.039 2.39 2.39 0 0 1 1.494-.166c.503.106.965.371 1.328.762.364.391.612.891.714 1.435a3.022 3.022 0 0 1-.143 1.621 2.753 2.753 0 0 1-.95 1.26 2.44 2.44 0 0 1-1.437.474 2.486 2.486 0 0 1-1.824-.814 2.93 2.93 0 0 1-.765-1.971z" style="mix-blend-mode:color-dodge"/>
        <path fill="url(#H)" d="M112.39 256.571l.32 49.252 19.913 21.308.383 58.879 1.372-.009-.386-59.496-19.913-21.308-.312-48.034 32.86-36.074-.57-87.819 31.526-34.64-.195-30.018-1.373.01.191 29.399-31.526 34.64.57 87.82-32.86 36.09z" style="mix-blend-mode:color-dodge"/>
        <path fill="url(#I)" d="M131.121 385.88c0 .555.154 1.098.439 1.56.286.461.692.82 1.167 1.031.474.211.995.264 1.497.154a2.536 2.536 0 0 0 1.323-.777 2.88 2.88 0 0 0 .698-1.443c.096-.546.04-1.11-.161-1.622a2.767 2.767 0 0 0-.966-1.25 2.44 2.44 0 0 0-1.445-.456c-.68.008-1.33.307-1.808.832a2.925 2.925 0 0 0-.744 1.971z" style="mix-blend-mode:color-dodge"/>
        <path fill="url(#J)" d="M174.132 68.76a2.975 2.975 0 0 1 .427-1.561 2.643 2.643 0 0 1 1.156-1.04 2.399 2.399 0 0 1 1.494-.166c.503.106.965.371 1.329.763.363.39.611.89.713 1.434a3.014 3.014 0 0 1-.143 1.621 2.759 2.759 0 0 1-.95 1.26 2.443 2.443 0 0 1-2.425.267 2.562 2.562 0 0 1-.84-.602 2.798 2.798 0 0 1-.562-.906 2.994 2.994 0 0 1-.199-1.07z" style="mix-blend-mode:color-dodge"/>
        <path fill="url(#K)" d="M163.552 285.908l.756 116.396 1.372-.009-.752-115.778 41.156-45.2-.303-46.593 27.379-30.07-.309-47.622 28.771-31.599-.985-1.038-29.163 32.028.309 47.623-27.379 30.069.303 46.593-41.155 45.2z" style="mix-blend-mode:color-dodge"/>
        <path fill="url(#L)" d="M162.41 402.174c.004.554.159 1.095.446 1.554a2.64 2.64 0 0 0 1.167 1.024 2.4 2.4 0 0 0 1.494.15c.501-.111.96-.381 1.319-.775.359-.395.602-.896.698-1.44a3.024 3.024 0 0 0-.158-1.618 2.763 2.763 0 0 0-.96-1.251 2.434 2.434 0 0 0-2.429-.248c-.314.142-.598.35-.837.613a2.804 2.804 0 0 0-.554.915c-.127.341-.19.707-.186 1.076z" style="mix-blend-mode:color-dodge"/>
        <path fill="url(#M)" d="M259.196 82.979a2.533 2.533 0 0 1 1.319-.778 2.398 2.398 0 0 1 1.495.149c.474.209.881.565 1.168 1.025.288.459.443 1 .446 1.554a2.962 2.962 0 0 1-.426 1.56 2.64 2.64 0 0 1-1.154 1.04 2.399 2.399 0 0 1-1.493.168 2.53 2.53 0 0 1-1.329-.76 2.927 2.927 0 0 1-.768-1.974 2.93 2.93 0 0 1 .742-1.984z" style="mix-blend-mode:color-dodge"/>
        <path fill="url(#N)" d="M41.647 724.58l.311 47.955 1.373-.009-.308-47.338 15.865-17.423-.504-77.64-1.373.009.5 77.022-15.864 17.424z" style="mix-blend-mode:color-dodge"/>
        <path fill="url(#O)" d="M40.058 772.389c.005.743.282 1.454.77 1.976a2.487 2.487 0 0 0 1.833.809 2.485 2.485 0 0 0 1.823-.833c.481-.528.749-1.243.744-1.986a2.997 2.997 0 0 0-.204-1.069 2.81 2.81 0 0 0-.567-.902 2.568 2.568 0 0 0-.843-.597 2.388 2.388 0 0 0-.989-.202 2.49 2.49 0 0 0-1.817.827 2.926 2.926 0 0 0-.75 1.977z" style="mix-blend-mode:color-dodge"/>
        <path fill="url(#P)" d="M55.111 630.289a2.976 2.976 0 0 1 .419-1.564c.28-.465.68-.829 1.15-1.047.47-.217.99-.278 1.494-.175.503.103.967.365 1.332.754.366.389.617.887.72 1.43a3.02 3.02 0 0 1-.133 1.622c-.192.514-.52.955-.944 1.267a2.445 2.445 0 0 1-1.434.482 2.485 2.485 0 0 1-1.829-.803 2.925 2.925 0 0 1-.775-1.966z" style="mix-blend-mode:color-dodge"/>
        <path fill="url(#Q)" d="M7.642 56.526l.917 141.125 24.531 26.234.195 29.922-18.852 20.705.196 30.254 26.09 27.918.447 68.758-28.611 31.407.308 47.417 23.178 24.785.635 97.714 11.869 12.716.425 65.465 1.373-.009-.43-66.082-11.883-12.7-.635-97.714-23.164-24.802-.3-46.181 28.612-31.408-.454-69.993-26.091-27.917-.189-29.02 18.852-20.704-.202-31.157-24.517-26.25L9.03 56.517l-1.388.01z" style="mix-blend-mode:color-dodge"/>
        <path fill="url(#R)" d="M47.07 680.815a2.978 2.978 0 0 0 .418 1.571c.28.467.682.834 1.154 1.053.473.218.995.28 1.5.176a2.527 2.527 0 0 0 1.333-.761c.365-.392.614-.892.715-1.438a3.024 3.024 0 0 0-.147-1.627 2.767 2.767 0 0 0-.96-1.262 2.447 2.447 0 0 0-1.445-.468 2.488 2.488 0 0 0-1.802.81 2.92 2.92 0 0 0-.765 1.946z" style="mix-blend-mode:color-dodge"/>
        <path fill="url(#S)" d="M5.758 56.68c-.006-.554.14-1.098.419-1.563.279-.465.68-.83 1.15-1.047.47-.217.99-.278 1.493-.175.504.103.967.365 1.333.754.365.39.616.887.72 1.43a3.023 3.023 0 0 1-.133 1.622c-.192.514-.52.955-.944 1.267-.424.311-.923.479-1.435.482-.682 0-1.337-.29-1.824-.808a2.94 2.94 0 0 1-.779-1.961z" style="mix-blend-mode:color-dodge"/>
        <path fill="url(#T)" d="M15.234 60.593l.692 106.533 32.135 34.385.295 45.437 13.722 14.683.183 28.086-11.471 12.598.338 52.055 12.737 13.628.083 12.776-10.384 11.404.462 71.116 26.415 28.28.322 49.68-18.866 20.737.317 48.778 1.358-.009-.313-48.161 18.881-20.736-.33-50.915-26.43-28.28-.453-69.882 10.397-11.403-.09-14.011-12.737-13.629-.33-50.82 11.47-12.598-.19-29.32-13.722-14.683-.295-45.422-32.135-34.385-.688-105.93-1.373.008z" style="mix-blend-mode:color-dodge"/>
        <path fill="url(#U)" d="M60.316 610.639a2.97 2.97 0 0 0 .447 1.555c.288.46.695.816 1.169 1.025.475.208.995.26 1.497.147.5-.113.96-.384 1.318-.78.358-.396.6-.898.695-1.444a3.021 3.021 0 0 0-.164-1.619 2.764 2.764 0 0 0-.967-1.248 2.44 2.44 0 0 0-1.443-.455 2.488 2.488 0 0 0-1.813.838 2.926 2.926 0 0 0-.739 1.981z" style="mix-blend-mode:color-dodge"/>
        <path fill="url(#V)" d="M13.338 60.748c-.007-.555.139-1.1.418-1.564.28-.465.68-.829 1.15-1.047a2.4 2.4 0 0 1 1.494-.175c.503.103.967.365 1.332.754.366.39.617.887.721 1.43a3.022 3.022 0 0 1-.134 1.623c-.192.514-.52.954-.944 1.266-.423.311-.922.48-1.434.483a2.487 2.487 0 0 1-1.828-.804 2.924 2.924 0 0 1-.775-1.966z" style="mix-blend-mode:color-dodge"/>
        <path fill="url(#W)" d="M65.439 639.167l.461 71.022 13.781 14.761.27 41.559 1.373-.009-.274-42.176-13.78-14.746-.458-70.42-1.373.009z" style="mix-blend-mode:color-dodge"/>
        <path fill="url(#X)" d="M78.05 766.379c.008.742.287 1.45.774 1.972a2.501 2.501 0 0 0 1.829.813 2.488 2.488 0 0 0 1.822-.832 2.93 2.93 0 0 0 .745-1.987 2.924 2.924 0 0 0-.77-1.976 2.483 2.483 0 0 0-1.834-.809 2.488 2.488 0 0 0-1.822.832 2.929 2.929 0 0 0-.744 1.987z" style="mix-blend-mode:color-dodge"/>
        <path fill="url(#Y)" d="M63.54 639.29c-.002-.553.149-1.094.432-1.555a2.64 2.64 0 0 1 1.156-1.033c.472-.212.99-.269 1.492-.162.5.106.962.371 1.324.762.363.39.61.887.713 1.43a3.023 3.023 0 0 1-.139 1.618 2.768 2.768 0 0 1-.944 1.261 2.45 2.45 0 0 1-1.432.481 2.404 2.404 0 0 1-.996-.204 2.565 2.565 0 0 1-.846-.606 2.818 2.818 0 0 1-.565-.913 2.995 2.995 0 0 1-.196-1.079z" style="mix-blend-mode:color-dodge"/>
        <path fill="url(#Z)" d="M80.323 648.95l.336 51.659 14.178 15.171.371 57.232 1.373-.009-.376-57.849-14.177-15.171-.332-51.042-1.373.009z" style="mix-blend-mode:color-dodge"/>
        <path fill="url(#aa)" d="M93.31 772.882c.005.736.278 1.441.76 1.96.483.519 1.135.81 1.814.809a2.473 2.473 0 0 0 1.812-.827 2.913 2.913 0 0 0 .74-1.976c0-.367-.068-.73-.198-1.07a2.813 2.813 0 0 0-.562-.905 2.567 2.567 0 0 0-.84-.603 2.401 2.401 0 0 0-.988-.207 2.494 2.494 0 0 0-1.804.843 2.93 2.93 0 0 0-.734 1.976z" style="mix-blend-mode:color-dodge"/>
        <path fill="url(#ab)" d="M78.442 649.105c-.007-.555.14-1.1.42-1.565a2.64 2.64 0 0 1 1.152-1.047 2.403 2.403 0 0 1 1.496-.173 2.53 2.53 0 0 1 1.332.759c.365.391.614.89.717 1.434.103.545.054 1.11-.14 1.624a2.767 2.767 0 0 1-.95 1.263 2.445 2.445 0 0 1-1.439.475 2.474 2.474 0 0 1-1.822-.805 2.908 2.908 0 0 1-.766-1.965z" style="mix-blend-mode:color-dodge"/>
        <path fill="url(#ac)" d="M33.83 429.909l.171 26.312 32.37 34.621.278 42.683-13.226 14.509.35 53.718 1.387-.009-.345-53.1 13.21-14.509-.284-43.918-32.37-34.621-.168-25.695-1.373.009z" style="mix-blend-mode:color-dodge"/>
        <path fill="url(#ad)" d="M51.888 601.621a2.98 2.98 0 0 0 .419 1.573c.28.468.683.834 1.157 1.052a2.4 2.4 0 0 0 1.5.174 2.53 2.53 0 0 0 1.334-.765c.364-.394.612-.896.712-1.443.099-.547.045-1.114-.154-1.628a2.766 2.766 0 0 0-.966-1.258 2.44 2.44 0 0 0-3.246.351 2.903 2.903 0 0 0-.756 1.944z" style="mix-blend-mode:color-dodge"/>
        <path fill="url(#ae)" d="M31.949 430.047a2.97 2.97 0 0 1 .427-1.561 2.645 2.645 0 0 1 1.155-1.04 2.405 2.405 0 0 1 1.495-.166c.502.106.965.372 1.328.763.364.391.612.89.714 1.434a3.019 3.019 0 0 1-.143 1.621 2.766 2.766 0 0 1-.95 1.261 2.44 2.44 0 0 1-2.426.267 2.568 2.568 0 0 1-.84-.603 2.817 2.817 0 0 1-.562-.906 2.988 2.988 0 0 1-.198-1.07z" style="mix-blend-mode:color-dodge"/>
        <path fill="url(#af)" d="M30.137 470.495l26.781 28.657.178 27.421-12.833 14.095.338 52.071 1.358-.009-.334-51.453 12.848-14.095-.186-28.656-27.179-29.082-.971 1.051z" style="mix-blend-mode:color-dodge"/>
        <path fill="url(#ag)" d="M42.7 592.609c.001.555.154 1.097.44 1.558.285.461.69.82 1.163 1.032.474.211.994.265 1.496.156.502-.11.962-.378 1.322-.772.36-.394.605-.895.702-1.439a3.025 3.025 0 0 0-.155-1.621 2.772 2.772 0 0 0-.96-1.254 2.453 2.453 0 0 0-1.44-.464 2.49 2.49 0 0 0-1.818.827 2.927 2.927 0 0 0-.75 1.977z" style="mix-blend-mode:color-dodge"/>
        <path fill="url(#ah)" d="M28.905 472.055a2.944 2.944 0 0 1-.679-1.946 2.924 2.924 0 0 1 .744-1.916 2.492 2.492 0 0 1 1.758-.831 2.473 2.473 0 0 1 1.803.711c.48.526.751 1.235.756 1.974a2.961 2.961 0 0 1-.73 1.984 2.486 2.486 0 0 1-1.82.83 2.485 2.485 0 0 1-1.831-.806z" style="mix-blend-mode:color-dodge"/>
        <path fill="url(#ai)" d="M76.938 239.844l.985 1.054 32.846-36.074-.629-96.891 26.958-29.624-.97-1.038-27.365 30.054.629 96.89-32.454 35.629z" style="mix-blend-mode:color-dodge"/>
        <path fill="url(#aj)" d="M75.686 238.301c-.36.394-.604.895-.7 1.439a3.022 3.022 0 0 0 .156 1.619c.199.511.533.947.96 1.253a2.45 2.45 0 0 0 1.44.463 2.442 2.442 0 0 0 1.434-.482c.423-.311.752-.751.944-1.265.192-.514.24-1.078.135-1.621a2.88 2.88 0 0 0-.718-1.43 2.485 2.485 0 0 0-1.831-.806 2.486 2.486 0 0 0-1.82.83z" style="mix-blend-mode:color-dodge"/>
        <path fill="url(#ak)" d="M134.686 75.871a2.532 2.532 0 0 1 1.319-.777c.5-.112 1.021-.06 1.495.148.474.21.881.566 1.168 1.025.287.459.442 1 .446 1.555a2.972 2.972 0 0 1-.426 1.56 2.64 2.64 0 0 1-1.154 1.04 2.401 2.401 0 0 1-1.494.167 2.53 2.53 0 0 1-1.328-.76 2.927 2.927 0 0 1-.768-1.974 2.926 2.926 0 0 1 .742-1.984z" style="mix-blend-mode:color-dodge"/>
        <path fill="url(#al)" d="M17.785 3.231L43.61 30.85l.19 29.273 12.634 13.534.194 29.89-14.342 15.752.261 40.197 25.267 27.052.287 44.044 1.372-.009-.29-44.662-25.267-27.052-.253-38.962 14.342-15.751-.202-31.126-12.634-13.534-.19-29.273L18.742 2.164l-.957 1.067z" style="mix-blend-mode:color-dodge"/>
        <path fill="url(#am)" d="M66.214 230.445c0 .556.154 1.099.44 1.56.285.462.691.821 1.166 1.032.474.211.995.264 1.498.153a2.53 2.53 0 0 0 1.322-.776c.36-.395.603-.898.698-1.443.096-.546.04-1.11-.16-1.622a2.76 2.76 0 0 0-.967-1.25 2.447 2.447 0 0 0-1.445-.457 2.475 2.475 0 0 0-1.812.828 2.91 2.91 0 0 0-.74 1.975z" style="mix-blend-mode:color-dodge"/>
        <path fill="url(#an)" d="M16.551 4.775a2.926 2.926 0 0 1-.767-1.974 2.926 2.926 0 0 1 .742-1.984A2.513 2.513 0 0 1 18.346 0c.682-.004 1.34.28 1.83.794.449.53.692 1.226.68 1.945a2.921 2.921 0 0 1-.744 1.916 2.493 2.493 0 0 1-1.757.832 2.472 2.472 0 0 1-1.804-.712z" style="mix-blend-mode:color-dodge"/>
        <path fill="url(#ao)" d="M75.168 118.262l.158 24.333L93.9 162.471l.234 36.081L79.068 215.1l.971 1.054 15.473-17.009-.242-37.3-18.575-19.876-.15-23.099L93.83 99.902l-.177-27.31 14.27-15.672-.986-1.055-14.66 16.118.177 27.31-17.286 18.969z" style="mix-blend-mode:color-dodge"/>
        <path fill="url(#ap)" d="M77.802 213.54c-.36.394-.603.895-.7 1.44a3.023 3.023 0 0 0 .157 1.619c.198.511.533.947.96 1.252.427.306.928.467 1.44.464a2.45 2.45 0 0 0 1.433-.482 2.77 2.77 0 0 0 .944-1.265c.192-.514.24-1.078.136-1.621a2.88 2.88 0 0 0-.719-1.43 2.49 2.49 0 0 0-1.83-.807 2.49 2.49 0 0 0-1.82.83z" style="mix-blend-mode:color-dodge"/>
        <path fill="url(#aq)" d="M105.499 54.513a2.53 2.53 0 0 1 1.318-.777 2.401 2.401 0 0 1 1.496.148c.474.21.88.566 1.168 1.025.287.459.442 1 .446 1.555a2.98 2.98 0 0 1-.426 1.56 2.644 2.644 0 0 1-1.155 1.04 2.398 2.398 0 0 1-1.493.167 2.527 2.527 0 0 1-1.328-.76 2.927 2.927 0 0 1-.768-1.974 2.926 2.926 0 0 1 .742-1.984z" style="mix-blend-mode:color-dodge"/>
        <path fill="url(#ar)" d="M100.618 83.47l.284 43.823 1.373-.009-.281-43.205 29.801-32.73-.971-1.054-30.206 33.176z" style="mix-blend-mode:color-dodge"/>
        <path fill="url(#as)" d="M98.975 127.163c.004.554.159 1.095.446 1.554a2.64 2.64 0 0 0 1.167 1.024c.474.21.994.262 1.494.15.501-.111.96-.381 1.319-.775s.602-.895.698-1.44a3.023 3.023 0 0 0-.157-1.618 2.77 2.77 0 0 0-.961-1.251 2.448 2.448 0 0 0-1.439-.463c-.34 0-.676.073-.99.215a2.58 2.58 0 0 0-.837.613 2.81 2.81 0 0 0-.554.915c-.127.342-.19.707-.186 1.076z" style="mix-blend-mode:color-dodge"/>
        <path fill="url(#at)" d="M129.385 48.99a2.526 2.526 0 0 1 1.318-.777 2.398 2.398 0 0 1 1.495.149c.475.209.881.565 1.168 1.024.288.46.443 1 .447 1.555a2.981 2.981 0 0 1-.426 1.56 2.649 2.649 0 0 1-1.155 1.04 2.398 2.398 0 0 1-1.493.168 2.53 2.53 0 0 1-1.329-.76 2.921 2.921 0 0 1-.767-1.974 2.926 2.926 0 0 1 .742-1.984z" style="mix-blend-mode:color-dodge"/>
        <path fill="url(#au)" d="M66.9 104.303l.382 58.752 11.104 11.882.162 25.062 1.373-.009-.167-25.68-11.104-11.881-.373-57.517L81.314 90.61l-.192-29.48 39.328-43.208-.97-1.055-39.735 43.64.192 29.478L66.9 104.303z" style="mix-blend-mode:color-dodge"/>
        <path fill="url(#av)" d="M76.663 199.885a2.97 2.97 0 0 0 .454 1.551c.289.457.697.811 1.172 1.017.474.206.995.255 1.495.141.5-.115.958-.387 1.314-.784.357-.396.598-.899.691-1.443a3.024 3.024 0 0 0-.166-1.618 2.76 2.76 0 0 0-.967-1.245 2.436 2.436 0 0 0-2.43-.233 2.566 2.566 0 0 0-.834.618 2.824 2.824 0 0 0-.55.918 2.997 2.997 0 0 0-.18 1.078z" style="mix-blend-mode:color-dodge"/>
        <path fill="url(#aw)" d="M118.038 15.531a2.481 2.481 0 0 1 1.815-.834 2.48 2.48 0 0 1 1.829.803c.487.52.765 1.227.771 1.968a2.917 2.917 0 0 1-.738 1.982 2.481 2.481 0 0 1-1.815.834 2.477 2.477 0 0 1-1.829-.803 2.912 2.912 0 0 1-.771-1.968 2.918 2.918 0 0 1 .738-1.982z" style="mix-blend-mode:color-dodge"/>
        <path fill="url(#ax)" d="M53.357 126.32l.224 34.355 12.618 13.502.972-1.051-12.222-13.078-.219-33.737-1.373.009z" style="mix-blend-mode:color-dodge"/>
        <path fill="url(#ay)" d="M64.776 175.532c.495.479 1.141.734 1.804.712a2.493 2.493 0 0 0 1.757-.832 2.92 2.92 0 0 0 .744-1.916 2.943 2.943 0 0 0-.68-1.945 2.516 2.516 0 0 0-1.83-.794 2.517 2.517 0 0 0-1.82.817 2.928 2.928 0 0 0-.742 1.984c.004.742.28 1.452.767 1.974z" style="mix-blend-mode:color-dodge"/>
        <path fill="url(#az)" d="M51.461 126.459a2.972 2.972 0 0 1 .425-1.56 2.646 2.646 0 0 1 1.154-1.04 2.4 2.4 0 0 1 1.492-.169c.503.105.965.369 1.329.759.364.389.613.887.717 1.43a3.023 3.023 0 0 1-.137 1.62c-.192.513-.52.953-.944 1.263a2.44 2.44 0 0 1-2.426.279 2.565 2.565 0 0 1-.844-.601 2.815 2.815 0 0 1-.566-.908c-.132-.34-.2-.705-.2-1.073z" style="mix-blend-mode:color-dodge"/>
        <path fill="url(#aA)" d="M-32.832 4.02l.428 65.876 6.324 6.766.244 37.522 27.194 29.098.27 41.558L3 184.831l-.274-42.176-27.193-29.097-.244-37.522-6.324-6.767-.424-65.259-1.373.01z" style="mix-blend-mode:color-dodge"/>
        <path fill="url(#aB)" d="M-.274 184.71c.004.554.159 1.095.446 1.554.287.459.693.816 1.167 1.025.474.209.994.261 1.494.149.501-.111.96-.381 1.319-.775s.602-.895.698-1.439a3.025 3.025 0 0 0-.158-1.619 2.768 2.768 0 0 0-.96-1.251 2.448 2.448 0 0 0-1.439-.463c-.34 0-.677.073-.99.216-.314.142-.598.35-.837.612a2.81 2.81 0 0 0-.554.915c-.127.342-.19.708-.186 1.076z" style="mix-blend-mode:color-dodge"/>
        <path fill="url(#aC)" d="M155.634 528.434l.456 70.23 49.431 52.892.216 33.342-15.661 17.201.444 68.473.877-.006-.443-68.093 15.662-17.2-.221-34.118-49.431-52.892-.451-69.439 23.289-25.578-.486-74.821 21.868-24.018-.428-65.971-.876.006.426 65.591-21.869 24.002.486 74.837-23.289 25.562z" style="mix-blend-mode:color-dodge"/>
        <path fill="url(#aD)" d="M188.97 770.455a2.25 2.25 0 0 0 .592 1.519c.375.402.882.625 1.409.622.26-.002.518-.059.757-.169.24-.11.457-.27.639-.472.182-.201.325-.44.422-.702.096-.262.144-.542.14-.824a2.232 2.232 0 0 0-.587-1.508 1.903 1.903 0 0 0-1.399-.617 1.911 1.911 0 0 0-1.396.634 2.25 2.25 0 0 0-.577 1.517z" style="mix-blend-mode:color-dodge"/>
        <path fill="url(#aE)" d="M198.331 338.546a2.288 2.288 0 0 1 .32-1.203 2.04 2.04 0 0 1 .883-.806 1.844 1.844 0 0 1 1.149-.136c.387.079.743.28 1.025.579.281.299.474.681.555 1.099.08.418.045.852-.103 1.247-.147.396-.4.735-.725.974a1.882 1.882 0 0 1-1.864.218 1.965 1.965 0 0 1-.647-.458 2.138 2.138 0 0 1-.436-.693 2.286 2.286 0 0 1-.157-.821z" style="mix-blend-mode:color-dodge"/>
        <path fill="url(#aF)" d="M7.92 499.518l.384 59.069 39.048 41.797.167 25.727-8.266 9.078.192 29.527.876-.006-.19-29.131 8.267-9.078-.173-26.518-39.047-41.798-.379-58.277 12.935-14.222-.562-86.585 23.884-26.215-.487-75.043-24.076-25.777-1.187-182.779-.877.006 1.19 183.174 24.076 25.777.482 74.252-23.884 26.215.563 86.601L7.92 499.518z" style="mix-blend-mode:color-dodge"/>
        <path fill="url(#aG)" d="M37.91 664.614c.003.427.123.843.344 1.196.221.354.534.628.9.788.364.16.765.199 1.15.112a1.95 1.95 0 0 0 1.013-.6c.276-.305.461-.691.533-1.111a2.323 2.323 0 0 0-.127-1.245 2.12 2.12 0 0 0-.744-.958 1.873 1.873 0 0 0-1.868-.179c-.24.11-.456.27-.638.471-.182.202-.326.44-.422.702a2.297 2.297 0 0 0-.14.824z" style="mix-blend-mode:color-dodge"/>
        <path fill="url(#aH)" d="M16.94 89.413a2.287 2.287 0 0 1 .32-1.203c.214-.358.521-.639.883-.806a1.844 1.844 0 0 1 1.148-.137c.387.079.744.28 1.025.58.282.298.475.68.556 1.098.08.418.044.852-.103 1.248-.147.395-.4.734-.725.974a1.88 1.88 0 0 1-1.103.37 1.912 1.912 0 0 1-1.404-.615 2.247 2.247 0 0 1-.597-1.51z" style="mix-blend-mode:color-dodge"/>
        <path fill="url(#aI)" d="M-31.63 139.68l.691 106.485 37.077 39.673.61 93.725.875-.006-.611-94.12-37.077-39.673-.689-106.09-.876.006z" style="mix-blend-mode:color-dodge"/>
        <path fill="url(#aJ)" d="M5.196 379.461c.002.426.122.841.342 1.194.221.353.533.627.897.788.364.16.764.201 1.149.115a1.947 1.947 0 0 0 1.014-.596c.275-.303.462-.688.536-1.107a2.32 2.32 0 0 0-.121-1.243 2.121 2.121 0 0 0-.738-.962 1.873 1.873 0 0 0-1.868-.191c-.241.109-.46.269-.644.47a2.163 2.163 0 0 0-.425.704 2.296 2.296 0 0 0-.142.828z" style="mix-blend-mode:color-dodge"/>
        <path fill="url(#aK)" d="M68.07 761.33l.54 82.943 1.635-.011-.534-82.215 8.773-9.62-.192-29.573 28.815-31.631-.986-151.812 35.442-38.94-1.162-1.243-35.935 39.466.986 151.796-28.8 31.646.192 29.558-8.773 9.636z" style="mix-blend-mode:color-dodge"/>
        <path fill="url(#aL)" d="M143.063 502.314a3.44 3.44 0 0 0 .823-1.717 3.603 3.603 0 0 0-.193-1.924 3.296 3.296 0 0 0-1.145-1.486 2.913 2.913 0 0 0-1.712-.549 2.92 2.92 0 0 0-1.705.571 3.3 3.3 0 0 0-1.126 1.501 3.6 3.6 0 0 0-.168 1.927c.12.646.414 1.239.845 1.705.289.312.631.559 1.009.727a2.864 2.864 0 0 0 2.373-.016c.375-.172.715-.424.999-.739z" style="mix-blend-mode:color-dodge"/>
        <path fill="url(#aM)" d="M31.854 651.941l.575 88.563 1.636-.011-.57-87.835 36.413-39.992-.981-151.083 52.64-57.83-1.402-215.867-1.636.011 1.398 215.138-52.64 57.814.98 151.084-36.413 40.008z" style="mix-blend-mode:color-dodge"/>
        <path fill="url(#aN)" d="M116.267 188.069a3.539 3.539 0 0 1 .507-1.859 3.152 3.152 0 0 1 1.375-1.239 2.857 2.857 0 0 1 1.779-.202c.599.125 1.15.44 1.584.904.434.464.731 1.058.854 1.705a3.605 3.605 0 0 1-.162 1.931 3.304 3.304 0 0 1-1.126 1.507c-.504.37-1.099.57-1.708.574a2.969 2.969 0 0 1-2.185-.964 3.492 3.492 0 0 1-.918-2.357z" style="mix-blend-mode:color-dodge"/>
        <path fill="url(#aO)" d="M105.084 645.037l1.176 1.243 39.285-43.145-.486-74.822 23.667-25.992-1.383-212.812-1.635.011 1.377 212.067-23.667 25.993.487 74.837-38.821 42.62z" style="mix-blend-mode:color-dodge"/>
        <path fill="url(#aP)" d="M163.443 289.692a3.548 3.548 0 0 1 .507-1.859 3.152 3.152 0 0 1 1.375-1.239 2.857 2.857 0 0 1 1.779-.202c.599.125 1.15.44 1.584.904.434.465.731 1.058.854 1.705a3.595 3.595 0 0 1-.162 1.931 3.304 3.304 0 0 1-1.126 1.507c-.504.37-1.098.57-1.708.574a2.98 2.98 0 0 1-2.181-.969 3.502 3.502 0 0 1-.922-2.352z" style="mix-blend-mode:color-dodge"/>
        <path fill="url(#aQ)" d="M105.198 599.787l1.162 1.243 16.372-17.981-.186-28.656-1.636.011.182 27.912-15.894 17.471z" style="mix-blend-mode:color-dodge"/>
        <path fill="url(#aR)" d="M118.648 554.577a3.551 3.551 0 0 1 .514-1.855 3.153 3.153 0 0 1 1.378-1.232 2.87 2.87 0 0 1 1.779-.196 3.017 3.017 0 0 1 1.579.908c.433.465.729 1.058.851 1.705a3.608 3.608 0 0 1-.165 1.929 3.297 3.297 0 0 1-1.126 1.504 2.912 2.912 0 0 1-1.707.573 2.983 2.983 0 0 1-2.186-.974 3.51 3.51 0 0 1-.917-2.362z" style="mix-blend-mode:color-dodge"/>
        <path fill="url(#aS)" d="M91.783 434.171l.276 42.429 16.634 17.799 1.145-1.259-16.134-17.279-.27-41.701-1.65.011z" style="mix-blend-mode:color-dodge"/>
        <path fill="url(#aT)" d="M111.315 491.263c.43.466.724 1.059.845 1.706.12.646.062 1.316-.169 1.926a3.299 3.299 0 0 1-1.125 1.501 2.92 2.92 0 0 1-1.705.571 2.913 2.913 0 0 1-1.712-.549 3.289 3.289 0 0 1-1.145-1.486 3.604 3.604 0 0 1-.194-1.924 3.44 3.44 0 0 1 .823-1.716c.283-.32.622-.575.997-.75a2.838 2.838 0 0 1 2.378-.016c.378.17.72.421 1.007.737z" style="mix-blend-mode:color-dodge"/>
        <path fill="url(#aU)" d="M51.813 439.26l.573 88.215L67.8 543.967l1.146-1.274-14.928-15.973-.563-86.727 50.32-55.281-.522-80.331-1.636.011.517 79.602-50.32 55.266z" style="mix-blend-mode:color-dodge"/>
        <path fill="url(#aV)" d="M99.352 304.564a3.546 3.546 0 0 1 .507-1.859 3.147 3.147 0 0 1 1.375-1.239 2.86 2.86 0 0 1 1.78-.202c.598.125 1.149.44 1.583.904.434.464.732 1.058.855 1.705a3.605 3.605 0 0 1-.163 1.931 3.302 3.302 0 0 1-1.125 1.507 2.92 2.92 0 0 1-1.709.574 2.875 2.875 0 0 1-1.18-.247 3.074 3.074 0 0 1-1.005-.717 3.388 3.388 0 0 1-.675-1.08 3.583 3.583 0 0 1-.243-1.277z" style="mix-blend-mode:color-dodge"/>
        <path fill="url(#aW)" d="M144.516 338.817l.738 113.594 21.737 23.243 1.145-1.258-21.237-22.74-.733-112.849-1.65.01z" style="mix-blend-mode:color-dodge"/>
        <path fill="url(#aX)" d="M142.267 338.99a3.543 3.543 0 0 1 .507-1.859 3.154 3.154 0 0 1 1.375-1.24 2.864 2.864 0 0 1 1.779-.201 3.01 3.01 0 0 1 1.584.904c.434.464.732 1.057.855 1.705a3.605 3.605 0 0 1-.163 1.931 3.294 3.294 0 0 1-1.125 1.506 2.913 2.913 0 0 1-1.709.575 2.896 2.896 0 0 1-1.181-.247 3.073 3.073 0 0 1-1.004-.718 3.364 3.364 0 0 1-.675-1.079 3.576 3.576 0 0 1-.243-1.277z" style="mix-blend-mode:color-dodge"/>
        <path fill="url(#aY)" d="M120.005 327.229l1.177 1.243 14.806-16.261-.569-87.55-1.635.01.564 86.822-14.343 15.736z" style="mix-blend-mode:color-dodge"/>
        <path fill="url(#aZ)" d="M131.521 224.844a3.54 3.54 0 0 1 .508-1.859 3.15 3.15 0 0 1 1.374-1.239 2.86 2.86 0 0 1 1.78-.202c.598.125 1.149.44 1.583.904.434.464.732 1.058.855 1.705a3.605 3.605 0 0 1-.163 1.931 3.302 3.302 0 0 1-1.125 1.507 2.92 2.92 0 0 1-1.709.574 2.868 2.868 0 0 1-1.183-.242 3.056 3.056 0 0 1-1.006-.718 3.345 3.345 0 0 1-.675-1.081 3.571 3.571 0 0 1-.239-1.28z" style="mix-blend-mode:color-dodge"/>
        <path fill="url(#ba)" d="M64.38 197.526l18.325 19.608.829 127.589 18.707 20.018 1.161-1.259-18.223-19.514-.828-127.589-18.81-20.127-1.161 1.274z" style="mix-blend-mode:color-dodge"/>
        <path fill="url(#bb)" d="M62.93 199.372a3.44 3.44 0 0 1-.846-1.705 3.604 3.604 0 0 1 .169-1.927 3.295 3.295 0 0 1 1.125-1.5 2.914 2.914 0 0 1 1.705-.572 2.909 2.909 0 0 1 1.712.55c.509.362.907.879 1.145 1.486.239.606.306 1.276.194 1.923a3.443 3.443 0 0 1-.823 1.717c-.283.32-.622.574-.997.75-.375.175-.779.266-1.187.269a2.862 2.862 0 0 1-1.191-.254 3.057 3.057 0 0 1-1.007-.737z" style="mix-blend-mode:color-dodge"/>
        <path fill="url(#bc)" d="M77.14 797.321l.228 35.052 17.046 18.223 1.146-1.258L79 831.618l-.219-33.579 62.574-68.724-.324-49.886 48.668-53.45-.459-70.578-1.636.01.454 69.85-48.667 53.45.324 49.871-62.574 68.739z" style="mix-blend-mode:color-dodge"/>
        <path fill="url(#bd)" d="M191.504 555.56a3.542 3.542 0 0 0-.531-1.852 3.147 3.147 0 0 0-1.391-1.221 2.854 2.854 0 0 0-1.782-.179 3.017 3.017 0 0 0-1.572.924 3.441 3.441 0 0 0-.832 1.716 3.601 3.601 0 0 0 .188 1.929 3.299 3.299 0 0 0 1.145 1.492 2.912 2.912 0 0 0 1.715.552 2.857 2.857 0 0 0 1.18-.258c.374-.169.713-.418.997-.73.285-.312.509-.683.661-1.09.151-.407.227-.843.222-1.283z" style="mix-blend-mode:color-dodge"/>
        <path fill="url(#be)" d="M93.482 745.522l.22 33.975 1.636-.01-.216-33.247 27.481-30.181-.196-30.081-1.635.011.19 29.352-27.48 30.181z" style="mix-blend-mode:color-dodge"/>
        <path fill="url(#bf)" d="M118.508 686.162a3.544 3.544 0 0 1 .508-1.859 3.149 3.149 0 0 1 1.375-1.24 2.862 2.862 0 0 1 1.779-.201c.598.125 1.15.439 1.584.904.433.464.731 1.057.854 1.705a3.605 3.605 0 0 1-.163 1.931 3.294 3.294 0 0 1-1.125 1.506 2.876 2.876 0 0 1-2.889.328 3.092 3.092 0 0 1-1.005-.718 3.381 3.381 0 0 1-.675-1.079 3.603 3.603 0 0 1-.243-1.277z" style="mix-blend-mode:color-dodge"/>
        <path fill="url(#bg)" d="M158.101 582.075l.493 75.914 1.636-.011-.488-75.17 14.414-15.831-.28-43.189 6.728-7.39-1.176-1.259-7.207 7.931.28 43.19-14.4 15.815z" style="mix-blend-mode:color-dodge"/>
        <path fill="url(#bh)" d="M177.708 513.535a3.02 3.02 0 0 1 1.573-.914 2.854 2.854 0 0 1 1.777.185c.563.25 1.045.675 1.386 1.221.34.547.524 1.19.529 1.849a3.555 3.555 0 0 1-.505 1.856c-.334.55-.81.982-1.37 1.239a2.859 2.859 0 0 1-1.775.208 3.016 3.016 0 0 1-1.584-.894c-.29-.31-.52-.679-.679-1.085a3.615 3.615 0 0 1-.017-2.571c.154-.408.38-.78.665-1.094z" style="mix-blend-mode:color-dodge"/>
        <path fill="url(#bi)" d="M123.039 625.7l.159 24.571 10.928 11.677 1.145-1.259-10.442-11.157-.154-23.843-1.636.011z" style="mix-blend-mode:color-dodge"/>
        <path fill="url(#bj)" d="M136.75 658.827a3.44 3.44 0 0 1 .845 1.706c.12.646.062 1.316-.168 1.926a3.3 3.3 0 0 1-1.126 1.501 2.92 2.92 0 0 1-1.705.571 2.913 2.913 0 0 1-1.712-.549 3.289 3.289 0 0 1-1.145-1.486 3.603 3.603 0 0 1-.193-1.924 3.44 3.44 0 0 1 .822-1.716c.285-.316.625-.568.999-.74a2.877 2.877 0 0 1 1.186-.266c.407-.002.811.083 1.188.25.377.168.72.415 1.009.727z" style="mix-blend-mode:color-dodge"/>
        <path fill="url(#bk)" d="M170.578 261.449l12.031 12.873.907 139.7 17.972 19.215.538 82.769-29.235 32.092 1.176 1.259 29.699-32.634-.547-84.225-17.957-19.231-.908-139.7-12.516-13.392-1.16 1.274z" style="mix-blend-mode:color-dodge"/>
        <path fill="url(#bl)" d="M169.101 263.295a3.436 3.436 0 0 1-.845-1.706 3.607 3.607 0 0 1 .168-1.926 3.3 3.3 0 0 1 1.126-1.501 2.915 2.915 0 0 1 1.705-.572 2.921 2.921 0 0 1 1.712.55c.508.362.907.879 1.145 1.486s.305 1.276.193 1.924a3.432 3.432 0 0 1-.823 1.716 3.079 3.079 0 0 1-.999.74 2.87 2.87 0 0 1-1.185.266 2.88 2.88 0 0 1-1.188-.251 3.067 3.067 0 0 1-1.009-.726z" style="mix-blend-mode:color-dodge"/>
        <path fill="url(#bm)" d="M117.135 438.819l7.413 7.932.453 69.755 1.636-.011-.458-70.483-7.898-8.451-1.146 1.258z" style="mix-blend-mode:color-dodge"/>
        <path fill="url(#bn)" d="M115.615 440.682a3.446 3.446 0 0 1-.846-1.706 3.608 3.608 0 0 1 .169-1.926c.23-.61.622-1.132 1.125-1.501a2.913 2.913 0 0 1 1.705-.571 2.913 2.913 0 0 1 1.712.549c.509.362.907.879 1.145 1.486.239.607.306 1.276.194 1.924a3.44 3.44 0 0 1-.823 1.716 3.075 3.075 0 0 1-.999.74 2.876 2.876 0 0 1-1.185.266 2.897 2.897 0 0 1-1.189-.25 3.08 3.08 0 0 1-1.008-.727z" style="mix-blend-mode:color-dodge"/>
        <path fill="url(#bo)" d="M184.119 434.791l.264 40.719 17.693 18.916 1.146-1.258-17.208-18.413-.259-39.975-1.636.011z" style="mix-blend-mode:color-dodge"/>
        <path fill="url(#bp)" d="M181.856 434.963a3.543 3.543 0 0 1 .507-1.859 3.154 3.154 0 0 1 1.375-1.24 2.864 2.864 0 0 1 1.779-.201 3.01 3.01 0 0 1 1.584.904 3.44 3.44 0 0 1 .855 1.705 3.605 3.605 0 0 1-.163 1.931 3.294 3.294 0 0 1-1.125 1.506 2.912 2.912 0 0 1-1.709.574 2.961 2.961 0 0 1-2.185-.964 3.49 3.49 0 0 1-.918-2.356z" style="mix-blend-mode:color-dodge"/>
        <path fill="url(#bq)" d="M133.203 353.552l.331 50.931 11.472 12.29 1.16-1.274-11.001-11.755-.326-50.203-1.636.011z" style="mix-blend-mode:color-dodge"/>
        <path fill="url(#br)" d="M130.942 353.725a3.54 3.54 0 0 1 .507-1.86 3.152 3.152 0 0 1 1.375-1.239 2.863 2.863 0 0 1 1.779-.202c.599.125 1.15.44 1.584.904.434.465.731 1.058.854 1.705.123.648.067 1.32-.163 1.932a3.3 3.3 0 0 1-1.125 1.506c-.504.37-1.099.57-1.708.574a2.849 2.849 0 0 1-1.183-.242 3.082 3.082 0 0 1-1.007-.717 3.377 3.377 0 0 1-.675-1.082 3.565 3.565 0 0 1-.238-1.279z" style="mix-blend-mode:color-dodge"/>
        <path fill="url(#bs)" d="M183.698 381.295l1.162 1.243 28.481-31.28-.85-130.85 21.84-23.986-1.162-1.259-22.318 24.511.85 130.866-28.003 30.755z" style="mix-blend-mode:color-dodge"/>
        <path fill="url(#bt)" d="M231.449 193.559a3.016 3.016 0 0 1 1.573-.914 2.854 2.854 0 0 1 1.777.185c.563.25 1.045.675 1.385 1.221.341.547.525 1.19.529 1.849a3.536 3.536 0 0 1-.505 1.856 3.15 3.15 0 0 1-1.369 1.239 2.86 2.86 0 0 1-1.775.208 3.012 3.012 0 0 1-1.584-.894 3.343 3.343 0 0 1-.693-1.081 3.572 3.572 0 0 1-.016-2.579c.156-.409.387-.779.678-1.09z" style="mix-blend-mode:color-dodge"/>
    </g>
    <defs>
        <radialGradient id="b" cx="0" cy="0" r="1" gradientTransform="rotate(-90.372 329.81 131.275) scale(224.405 207.007)" gradientUnits="userSpaceOnUse">
            <stop offset=".07" stop-color="#C0C0C0"/>
            <stop offset="1" stop-color="#3B3B3B"/>
        </radialGradient>
        <radialGradient id="c" cx="0" cy="0" r="1" gradientTransform="rotate(-90.372 162.565 764.081) scale(9.89218 9.12522)" gradientUnits="userSpaceOnUse">
            <stop offset=".07" stop-color="#C0C0C0"/>
            <stop offset="1" stop-color="#3B3B3B"/>
        </radialGradient>
        <radialGradient id="d" cx="0" cy="0" r="1" gradientTransform="rotate(-90.372 -979.414 -878.61) scale(9.86409 9.11014)" gradientUnits="userSpaceOnUse">
            <stop offset=".07" stop-color="#C0C0C0"/>
            <stop offset="1" stop-color="#3B3B3B"/>
        </radialGradient>
        <radialGradient id="e" cx="0" cy="0" r="1" gradientTransform="rotate(-90.372 -90461.971 -68142.398) scale(92243.3 12411.2)" gradientUnits="userSpaceOnUse">
            <stop offset=".07" stop-color="#C0C0C0"/>
            <stop offset="1" stop-color="#3B3B3B"/>
        </radialGradient>
        <radialGradient id="f" cx="0" cy="0" r="1" gradientTransform="rotate(-90.372 -110.67 1061.274) scale(9.89218 9.15099)" gradientUnits="userSpaceOnUse">
            <stop offset=".07" stop-color="#C0C0C0"/>
            <stop offset="1" stop-color="#3B3B3B"/>
        </radialGradient>
        <radialGradient id="g" cx="0" cy="0" r="1" gradientTransform="rotate(-90.372 -117016.696 -95301.85) scale(124463 16482.6)" gradientUnits="userSpaceOnUse">
            <stop offset=".07" stop-color="#C0C0C0"/>
            <stop offset="1" stop-color="#3B3B3B"/>
        </radialGradient>
        <radialGradient id="h" cx="0" cy="0" r="1" gradientTransform="matrix(-.06442 -9.91992 9.12503 -.05926 -831.843 919.61)" gradientUnits="userSpaceOnUse">
            <stop offset=".07" stop-color="#C0C0C0"/>
            <stop offset="1" stop-color="#3B3B3B"/>
        </radialGradient>
        <radialGradient id="i" cx="0" cy="0" r="1" gradientTransform="matrix(-.06421 -9.88755 9.121 -.05924 -1292.98 -2437.94)" gradientUnits="userSpaceOnUse">
            <stop offset=".07" stop-color="#C0C0C0"/>
            <stop offset="1" stop-color="#3B3B3B"/>
        </radialGradient>
        <radialGradient id="j" cx="0" cy="0" r="1" gradientTransform="matrix(-658.49853 -101393.86173 9101.87805 -59.1118 -11313.1 -178000)" gradientUnits="userSpaceOnUse">
            <stop offset=".07" stop-color="#C0C0C0"/>
            <stop offset="1" stop-color="#3B3B3B"/>
        </radialGradient>
        <radialGradient id="k" cx="0" cy="0" r="1" gradientTransform="rotate(-90.372 122.543 787.7) scale(9.89219 9.15099)" gradientUnits="userSpaceOnUse">
            <stop offset=".07" stop-color="#C0C0C0"/>
            <stop offset="1" stop-color="#3B3B3B"/>
        </radialGradient>
        <radialGradient id="l" cx="0" cy="0" r="1" gradientTransform="rotate(-90.372 -1381.338 -746.831) scale(9.92018 9.15099)" gradientUnits="userSpaceOnUse">
            <stop offset=".07" stop-color="#C0C0C0"/>
            <stop offset="1" stop-color="#3B3B3B"/>
        </radialGradient>
        <radialGradient id="m" cx="0" cy="0" r="1" gradientTransform="rotate(-90.372 -11151.551 -2905.614) scale(5107.2 1611.48)" gradientUnits="userSpaceOnUse">
            <stop offset=".07" stop-color="#C0C0C0"/>
            <stop offset="1" stop-color="#3B3B3B"/>
        </radialGradient>
        <radialGradient id="n" cx="0" cy="0" r="1" gradientTransform="matrix(-.06442 -9.91992 9.12503 -.05926 -714.724 908.283)" gradientUnits="userSpaceOnUse">
            <stop offset=".07" stop-color="#C0C0C0"/>
            <stop offset="1" stop-color="#3B3B3B"/>
        </radialGradient>
        <radialGradient id="o" cx="0" cy="0" r="1" gradientTransform="rotate(-90.372 -337.24 581.297) scale(9.85259 9.09933)" gradientUnits="userSpaceOnUse">
            <stop offset=".07" stop-color="#C0C0C0"/>
            <stop offset="1" stop-color="#3B3B3B"/>
        </radialGradient>
        <radialGradient id="p" cx="0" cy="0" r="1" gradientTransform="rotate(-90.372 -36419.4 -32040.785) scale(19555.9 1634.44)" gradientUnits="userSpaceOnUse">
            <stop offset=".07" stop-color="#C0C0C0"/>
            <stop offset="1" stop-color="#3B3B3B"/>
        </radialGradient>
        <radialGradient id="q" cx="0" cy="0" r="1" gradientTransform="matrix(-.06406 -9.86388 9.09909 -.0591 -731.484 285.156)" gradientUnits="userSpaceOnUse">
            <stop offset=".07" stop-color="#C0C0C0"/>
            <stop offset="1" stop-color="#3B3B3B"/>
        </radialGradient>
        <radialGradient id="r" cx="0" cy="0" r="1" gradientTransform="rotate(-90.372 -894.92 -158.153) scale(9.92014 9.151)" gradientUnits="userSpaceOnUse">
            <stop offset=".07" stop-color="#C0C0C0"/>
            <stop offset="1" stop-color="#3B3B3B"/>
        </radialGradient>
        <radialGradient id="s" cx="0" cy="0" r="1" gradientTransform="rotate(-90.372 -7735.613 -5424.025) scale(1330.38 262.451)" gradientUnits="userSpaceOnUse">
            <stop offset=".07" stop-color="#C0C0C0"/>
            <stop offset="1" stop-color="#3B3B3B"/>
        </radialGradient>
        <radialGradient id="t" cx="0" cy="0" r="1" gradientTransform="rotate(-90.372 -275.99 447.546) scale(9.92014 9.151)" gradientUnits="userSpaceOnUse">
            <stop offset=".07" stop-color="#C0C0C0"/>
            <stop offset="1" stop-color="#3B3B3B"/>
        </radialGradient>
        <radialGradient id="u" cx="0" cy="0" r="1" gradientTransform="rotate(-90.372 -417.707 245.012) scale(9.92014 9.15108)" gradientUnits="userSpaceOnUse">
            <stop offset=".07" stop-color="#C0C0C0"/>
            <stop offset="1" stop-color="#3B3B3B"/>
        </radialGradient>
        <radialGradient id="v" cx="0" cy="0" r="1" gradientTransform="rotate(-90.372 -88679.498 -72621.743) scale(40826.9 11999.1)" gradientUnits="userSpaceOnUse">
            <stop offset=".07" stop-color="#C0C0C0"/>
            <stop offset="1" stop-color="#3B3B3B"/>
        </radialGradient>
        <radialGradient id="w" cx="0" cy="0" r="1" gradientTransform="matrix(-.06442 -9.91994 9.15083 -.05943 -766.68 -547.793)" gradientUnits="userSpaceOnUse">
            <stop offset=".07" stop-color="#C0C0C0"/>
            <stop offset="1" stop-color="#3B3B3B"/>
        </radialGradient>
        <radialGradient id="x" cx="0" cy="0" r="1" gradientTransform="matrix(-.06442 -9.91991 9.15084 -.05943 -227.78 -2442.6)" gradientUnits="userSpaceOnUse">
            <stop offset=".07" stop-color="#C0C0C0"/>
            <stop offset="1" stop-color="#3B3B3B"/>
        </radialGradient>
        <radialGradient id="y" cx="0" cy="0" r="1" gradientTransform="matrix(-113.6747 -17503.33088 2724.45254 -17.69385 -7377.35 -98310.3)" gradientUnits="userSpaceOnUse">
            <stop offset=".07" stop-color="#C0C0C0"/>
            <stop offset="1" stop-color="#3B3B3B"/>
        </radialGradient>
        <radialGradient id="z" cx="0" cy="0" r="1" gradientTransform="matrix(-.06442 -9.91994 9.1508 -.05943 -787.908 -622.491)" gradientUnits="userSpaceOnUse">
            <stop offset=".07" stop-color="#C0C0C0"/>
            <stop offset="1" stop-color="#3B3B3B"/>
        </radialGradient>
        <radialGradient id="A" cx="0" cy="0" r="1" gradientTransform="matrix(-.06442 -9.9199 9.1509 -.05943 -605.331 -1882.36)" gradientUnits="userSpaceOnUse">
            <stop offset=".07" stop-color="#C0C0C0"/>
            <stop offset="1" stop-color="#3B3B3B"/>
        </radialGradient>
        <radialGradient id="B" cx="0" cy="0" r="1" gradientTransform="rotate(-90.372 -52358.228 -43032.807) scale(12142 3742.13)" gradientUnits="userSpaceOnUse">
            <stop offset=".07" stop-color="#C0C0C0"/>
            <stop offset="1" stop-color="#3B3B3B"/>
        </radialGradient>
        <radialGradient id="C" cx="0" cy="0" r="1" gradientTransform="matrix(-.06442 -9.9199 9.1508 -.05943 -672.246 -1222.2)" gradientUnits="userSpaceOnUse">
            <stop offset=".07" stop-color="#C0C0C0"/>
            <stop offset="1" stop-color="#3B3B3B"/>
        </radialGradient>
        <radialGradient id="D" cx="0" cy="0" r="1" gradientTransform="rotate(-90.372 -1302.024 -943.595) scale(9.92011 9.15101)" gradientUnits="userSpaceOnUse">
            <stop offset=".07" stop-color="#C0C0C0"/>
            <stop offset="1" stop-color="#3B3B3B"/>
        </radialGradient>
        <radialGradient id="E" cx="0" cy="0" r="1" gradientTransform="matrix(-79.9367 -12308.44043 2001.3978 -12.998 -6851.52 -87318.9)" gradientUnits="userSpaceOnUse">
            <stop offset=".07" stop-color="#C0C0C0"/>
            <stop offset="1" stop-color="#3B3B3B"/>
        </radialGradient>
        <radialGradient id="F" cx="0" cy="0" r="1" gradientTransform="rotate(-90.372 -822.435 -52.474) scale(9.92013 9.15101)" gradientUnits="userSpaceOnUse">
            <stop offset=".07" stop-color="#C0C0C0"/>
            <stop offset="1" stop-color="#3B3B3B"/>
        </radialGradient>
        <radialGradient id="G" cx="0" cy="0" r="1" gradientTransform="rotate(-90.372 -1302.678 -625.657) scale(9.92011 9.15101)" gradientUnits="userSpaceOnUse">
            <stop offset=".07" stop-color="#C0C0C0"/>
            <stop offset="1" stop-color="#3B3B3B"/>
        </radialGradient>
        <radialGradient id="H" cx="0" cy="0" r="1" gradientTransform="rotate(-90.372 -67346.744 -57104.82) scale(23024.8 4808.06)" gradientUnits="userSpaceOnUse">
            <stop offset=".07" stop-color="#C0C0C0"/>
            <stop offset="1" stop-color="#3B3B3B"/>
        </radialGradient>
        <radialGradient id="I" cx="0" cy="0" r="1" gradientTransform="matrix(-.06442 -9.91994 9.1508 -.05943 -700.717 -817.696)" gradientUnits="userSpaceOnUse">
            <stop offset=".07" stop-color="#C0C0C0"/>
            <stop offset="1" stop-color="#3B3B3B"/>
        </radialGradient>
        <radialGradient id="J" cx="0" cy="0" r="1" gradientTransform="matrix(-.06442 -9.9199 9.15089 -.05943 -505.452 -2257.37)" gradientUnits="userSpaceOnUse">
            <stop offset=".07" stop-color="#C0C0C0"/>
            <stop offset="1" stop-color="#3B3B3B"/>
        </radialGradient>
        <radialGradient id="K" cx="0" cy="0" r="1" gradientTransform="matrix(-154.16682 -23738.19939 7434.73321 -48.28459 -11009.5 -121584)" gradientUnits="userSpaceOnUse">
            <stop offset=".07" stop-color="#C0C0C0"/>
            <stop offset="1" stop-color="#3B3B3B"/>
        </radialGradient>
        <radialGradient id="L" cx="0" cy="0" r="1" gradientTransform="rotate(-90.372 -648.775 -94.367) scale(9.92019 9.15106)" gradientUnits="userSpaceOnUse">
            <stop offset=".07" stop-color="#C0C0C0"/>
            <stop offset="1" stop-color="#3B3B3B"/>
        </radialGradient>
        <radialGradient id="M" cx="0" cy="0" r="1" gradientTransform="rotate(-90.372 -1146.046 -1030.923) scale(9.92009 9.15101)" gradientUnits="userSpaceOnUse">
            <stop offset=".07" stop-color="#C0C0C0"/>
            <stop offset="1" stop-color="#3B3B3B"/>
        </radialGradient>
        <radialGradient id="N" cx="0" cy="0" r="1" gradientTransform="rotate(-90.372 -8311.44 -4536.872) scale(4560.7 556.08)" gradientUnits="userSpaceOnUse">
            <stop offset=".07" stop-color="#C0C0C0"/>
            <stop offset="1" stop-color="#3B3B3B"/>
        </radialGradient>
        <radialGradient id="O" cx="0" cy="0" r="1" gradientTransform="rotate(-90.372 -91.778 1021.747) scale(9.89218 9.15103)" gradientUnits="userSpaceOnUse">
            <stop offset=".07" stop-color="#C0C0C0"/>
            <stop offset="1" stop-color="#3B3B3B"/>
        </radialGradient>
        <radialGradient id="P" cx="0" cy="0" r="1" gradientTransform="matrix(-.06442 -9.91993 9.15084 -.05943 -1045.75 291.893)" gradientUnits="userSpaceOnUse">
            <stop offset=".07" stop-color="#C0C0C0"/>
            <stop offset="1" stop-color="#3B3B3B"/>
        </radialGradient>
        <radialGradient id="Q" cx="0" cy="0" r="1" gradientTransform="matrix(-567.18703 -87333.95823 5402.70606 -35.08767 -10157.1 -190570)" gradientUnits="userSpaceOnUse">
            <stop offset=".07" stop-color="#C0C0C0"/>
            <stop offset="1" stop-color="#3B3B3B"/>
        </radialGradient>
        <radialGradient id="R" cx="0" cy="0" r="1" gradientTransform="matrix(-.06442 -9.91992 9.1508 -.05943 -1082.25 521.361)" gradientUnits="userSpaceOnUse">
            <stop offset=".07" stop-color="#C0C0C0"/>
            <stop offset="1" stop-color="#3B3B3B"/>
        </radialGradient>
        <radialGradient id="S" cx="0" cy="0" r="1" gradientTransform="matrix(-.06442 -9.91986 9.1508 -.05943 -1269.86 -2312.33)" gradientUnits="userSpaceOnUse">
            <stop offset=".07" stop-color="#C0C0C0"/>
            <stop offset="1" stop-color="#3B3B3B"/>
        </radialGradient>
        <radialGradient id="T" cx="0" cy="0" r="1" gradientTransform="matrix(-442.89734 -68196.16183 7901.37337 -51.31516 -15003.1 -179348)" gradientUnits="userSpaceOnUse">
            <stop offset=".07" stop-color="#C0C0C0"/>
            <stop offset="1" stop-color="#3B3B3B"/>
        </radialGradient>
        <radialGradient id="U" cx="0" cy="0" r="1" gradientTransform="matrix(-.06442 -9.91991 9.15082 -.05943 -1022.18 202.697)" gradientUnits="userSpaceOnUse">
            <stop offset=".07" stop-color="#C0C0C0"/>
            <stop offset="1" stop-color="#3B3B3B"/>
        </radialGradient>
        <radialGradient id="V" cx="0" cy="0" r="1" gradientTransform="matrix(-.06442 -9.91992 9.1508 -.05943 -1235.4 -2293.82)" gradientUnits="userSpaceOnUse">
            <stop offset=".07" stop-color="#C0C0C0"/>
            <stop offset="1" stop-color="#3B3B3B"/>
        </radialGradient>
        <radialGradient id="W" cx="0" cy="0" r="1" gradientTransform="rotate(-90.372 -7154.592 -4145.834) scale(3656.06 431.998)" gradientUnits="userSpaceOnUse">
            <stop offset=".07" stop-color="#C0C0C0"/>
            <stop offset="1" stop-color="#3B3B3B"/>
        </radialGradient>
        <radialGradient id="X" cx="0" cy="0" r="1" gradientTransform="matrix(-.06442 -9.91992 9.1508 -.05943 -941.608 909.757)" gradientUnits="userSpaceOnUse">
            <stop offset=".07" stop-color="#C0C0C0"/>
            <stop offset="1" stop-color="#3B3B3B"/>
        </radialGradient>
        <radialGradient id="Y" cx="0" cy="0" r="1" gradientTransform="rotate(-90.372 -338.41 666.917) scale(9.92021 9.15122)" gradientUnits="userSpaceOnUse">
            <stop offset=".07" stop-color="#C0C0C0"/>
            <stop offset="1" stop-color="#3B3B3B"/>
        </radialGradient>
        <radialGradient id="Z" cx="0" cy="0" r="1" gradientTransform="rotate(-90.372 -6625.314 -3713.51) scale(3473.88 432.34)" gradientUnits="userSpaceOnUse">
            <stop offset=".07" stop-color="#C0C0C0"/>
            <stop offset="1" stop-color="#3B3B3B"/>
        </radialGradient>
        <radialGradient id="aa" cx="0" cy="0" r="1" gradientTransform="rotate(-90.372 34.245 898.631) scale(9.89211 9.07351)" gradientUnits="userSpaceOnUse">
            <stop offset=".07" stop-color="#C0C0C0"/>
            <stop offset="1" stop-color="#3B3B3B"/>
        </radialGradient>
        <radialGradient id="ab" cx="0" cy="0" r="1" gradientTransform="matrix(-.06442 -9.91992 9.15084 -.05943 -939.885 377.317)" gradientUnits="userSpaceOnUse">
            <stop offset=".07" stop-color="#C0C0C0"/>
            <stop offset="1" stop-color="#3B3B3B"/>
        </radialGradient>
        <radialGradient id="ac" cx="0" cy="0" r="1" gradientTransform="rotate(-90.372 -21627.494 -14309.532) scale(6749.79 1315.57)" gradientUnits="userSpaceOnUse">
            <stop offset=".07" stop-color="#C0C0C0"/>
            <stop offset="1" stop-color="#3B3B3B"/>
        </radialGradient>
        <radialGradient id="ad" cx="0" cy="0" r="1" gradientTransform="matrix(-.06442 -9.91992 9.15084 -.05943 -1060.39 161.821)" gradientUnits="userSpaceOnUse">
            <stop offset=".07" stop-color="#C0C0C0"/>
            <stop offset="1" stop-color="#3B3B3B"/>
        </radialGradient>
        <radialGradient id="ae" cx="0" cy="0" r="1" gradientTransform="matrix(-.06442 -9.91992 9.1509 -.05943 -1150.97 -617.188)" gradientUnits="userSpaceOnUse">
            <stop offset=".07" stop-color="#C0C0C0"/>
            <stop offset="1" stop-color="#3B3B3B"/>
        </radialGradient>
        <radialGradient id="af" cx="0" cy="0" r="1" gradientTransform="rotate(-90.372 -15326.021 -9110.436) scale(3500.3 793.452)" gradientUnits="userSpaceOnUse">
            <stop offset=".07" stop-color="#C0C0C0"/>
            <stop offset="1" stop-color="#3B3B3B"/>
        </radialGradient>
        <radialGradient id="ag" cx="0" cy="0" r="1" gradientTransform="matrix(-.06442 -9.91993 9.15084 -.05943 -1102.15 120.857)" gradientUnits="userSpaceOnUse">
            <stop offset=".07" stop-color="#C0C0C0"/>
            <stop offset="1" stop-color="#3B3B3B"/>
        </radialGradient>
        <radialGradient id="ah" cx="0" cy="0" r="1" gradientTransform="matrix(-.06322 -9.73495 8.95928 -.05819 -1143.11 -418.523)" gradientUnits="userSpaceOnUse">
            <stop offset=".07" stop-color="#C0C0C0"/>
            <stop offset="1" stop-color="#3B3B3B"/>
        </radialGradient>
        <radialGradient id="ai" cx="0" cy="0" r="1" gradientTransform="matrix(-41.71772 -6423.58453 2408.4892 -15.64184 -11198.8 -71247.7)" gradientUnits="userSpaceOnUse">
            <stop offset=".07" stop-color="#C0C0C0"/>
            <stop offset="1" stop-color="#3B3B3B"/>
        </radialGradient>
        <radialGradient id="aj" cx="0" cy="0" r="1" gradientTransform="matrix(-.06442 -9.91994 9.15083 -.05943 -955.733 -1478.71)" gradientUnits="userSpaceOnUse">
            <stop offset=".07" stop-color="#C0C0C0"/>
            <stop offset="1" stop-color="#3B3B3B"/>
        </radialGradient>
        <radialGradient id="ak" cx="0" cy="0" r="1" gradientTransform="rotate(-90.372 -1444.738 -766.276) scale(9.92009 9.15099)" gradientUnits="userSpaceOnUse">
            <stop offset=".07" stop-color="#C0C0C0"/>
            <stop offset="1" stop-color="#3B3B3B"/>
        </radialGradient>
        <radialGradient id="al" cx="0" cy="0" r="1" gradientTransform="rotate(-90.372 -58609.827 -47280.355) scale(12011.3 2636.57)" gradientUnits="userSpaceOnUse">
            <stop offset=".07" stop-color="#C0C0C0"/>
            <stop offset="1" stop-color="#3B3B3B"/>
        </radialGradient>
        <radialGradient id="am" cx="0" cy="0" r="1" gradientTransform="matrix(-.06442 -9.9199 9.1508 -.05943 -995.392 -1523.36)" gradientUnits="userSpaceOnUse">
            <stop offset=".07" stop-color="#C0C0C0"/>
            <stop offset="1" stop-color="#3B3B3B"/>
        </radialGradient>
        <radialGradient id="an" cx="0" cy="0" r="1" gradientTransform="matrix(-.06308 -9.71225 8.9802 -.05832 -1201.15 -2503.32)" gradientUnits="userSpaceOnUse">
            <stop offset=".07" stop-color="#C0C0C0"/>
            <stop offset="1" stop-color="#3B3B3B"/>
        </radialGradient>
        <radialGradient id="ao" cx="0" cy="0" r="1" gradientTransform="matrix(-38.0987 -5866.33629 1214.68438 -7.88872 -6591.7 -72270.6)" gradientUnits="userSpaceOnUse">
            <stop offset=".07" stop-color="#C0C0C0"/>
            <stop offset="1" stop-color="#3B3B3B"/>
        </radialGradient>
        <radialGradient id="ap" cx="0" cy="0" r="1" gradientTransform="rotate(-90.372 -1263.47 -325.563) scale(9.92015 9.15101)" gradientUnits="userSpaceOnUse">
            <stop offset=".07" stop-color="#C0C0C0"/>
            <stop offset="1" stop-color="#3B3B3B"/>
        </radialGradient>
        <radialGradient id="aq" cx="0" cy="0" r="1" gradientTransform="rotate(-90.372 -1559.26 -749.028) scale(9.92018 9.15099)" gradientUnits="userSpaceOnUse">
            <stop offset=".07" stop-color="#C0C0C0"/>
            <stop offset="1" stop-color="#3B3B3B"/>
        </radialGradient>
        <radialGradient id="ar" cx="0" cy="0" r="1" gradientTransform="matrix(-9.35702 -1440.76962 588.77858 -3.8238 -5473.42 -36910.3)" gradientUnits="userSpaceOnUse">
            <stop offset=".07" stop-color="#C0C0C0"/>
            <stop offset="1" stop-color="#3B3B3B"/>
        </radialGradient>
        <radialGradient id="as" cx="0" cy="0" r="1" gradientTransform="rotate(-90.372 -1412.955 -575.626) scale(9.92018 9.1511)" gradientUnits="userSpaceOnUse">
            <stop offset=".07" stop-color="#C0C0C0"/>
            <stop offset="1" stop-color="#3B3B3B"/>
        </radialGradient>
        <radialGradient id="at" cx="0" cy="0" r="1" gradientTransform="matrix(-.06442 -9.91988 9.15084 -.05943 -711.934 -2338.34)" gradientUnits="userSpaceOnUse">
            <stop offset=".07" stop-color="#C0C0C0"/>
            <stop offset="1" stop-color="#3B3B3B"/>
        </radialGradient>
        <radialGradient id="au" cx="0" cy="0" r="1" gradientTransform="matrix(-50.9346 -7842.7746 2320.74106 -15.07196 -10519.2 -85747.5)" gradientUnits="userSpaceOnUse">
            <stop offset=".07" stop-color="#C0C0C0"/>
            <stop offset="1" stop-color="#3B3B3B"/>
        </radialGradient>
        <radialGradient id="av" cx="0" cy="0" r="1" gradientTransform="rotate(-90.372 -1299.717 -360.181) scale(9.92017 9.15124)" gradientUnits="userSpaceOnUse">
            <stop offset=".07" stop-color="#C0C0C0"/>
            <stop offset="1" stop-color="#3B3B3B"/>
        </radialGradient>
        <radialGradient id="aw" cx="0" cy="0" r="1" gradientTransform="matrix(-.06421 -9.88755 9.121 -.05924 -760.57 -2481.97)" gradientUnits="userSpaceOnUse">
            <stop offset=".07" stop-color="#C0C0C0"/>
            <stop offset="1" stop-color="#3B3B3B"/>
        </radialGradient>
        <radialGradient id="ax" cx="0" cy="0" r="1" gradientTransform="rotate(-90.372 -11932.33 -9107.275) scale(536.447 151.169)" gradientUnits="userSpaceOnUse">
            <stop offset=".07" stop-color="#C0C0C0"/>
            <stop offset="1" stop-color="#3B3B3B"/>
        </radialGradient>
        <radialGradient id="ay" cx="0" cy="0" r="1" gradientTransform="matrix(-.06308 -9.71234 8.98023 -.05832 -985.406 -1740.76)" gradientUnits="userSpaceOnUse">
            <stop offset=".07" stop-color="#C0C0C0"/>
            <stop offset="1" stop-color="#3B3B3B"/>
        </radialGradient>
        <radialGradient id="az" cx="0" cy="0" r="1" gradientTransform="matrix(-.06442 -9.92 9.15087 -.05943 -1062.33 -1995.5)" gradientUnits="userSpaceOnUse">
            <stop offset=".07" stop-color="#C0C0C0"/>
            <stop offset="1" stop-color="#3B3B3B"/>
        </radialGradient>
        <radialGradient id="aA" cx="0" cy="0" r="1" gradientTransform="matrix(-48.54624 -7475.02236 1430.95982 -9.29331 -9600.44 -86600)" gradientUnits="userSpaceOnUse">
            <stop offset=".07" stop-color="#C0C0C0"/>
            <stop offset="1" stop-color="#3B3B3B"/>
        </radialGradient>
        <radialGradient id="aB" cx="0" cy="0" r="1" gradientTransform="rotate(-90.372 -1508.542 -221.134) scale(9.92018 9.1511)" gradientUnits="userSpaceOnUse">
            <stop offset=".07" stop-color="#C0C0C0"/>
            <stop offset="1" stop-color="#3B3B3B"/>
        </radialGradient>
        <radialGradient id="aC" cx="0" cy="0" r="1" gradientTransform="rotate(-90.372 -43377.957 -36900.315) scale(42013.5 4858.37)" gradientUnits="userSpaceOnUse">
            <stop offset=".07" stop-color="#C0C0C0"/>
            <stop offset="1" stop-color="#3B3B3B"/>
        </radialGradient>
        <radialGradient id="aD" cx="0" cy="0" r="1" gradientTransform="rotate(-90.372 296.385 591.154) scale(5.79443 5.34524)" gradientUnits="userSpaceOnUse">
            <stop offset=".07" stop-color="#C0C0C0"/>
            <stop offset="1" stop-color="#3B3B3B"/>
        </radialGradient>
        <radialGradient id="aE" cx="0" cy="0" r="1" gradientTransform="matrix(-.03777 -5.81578 5.36479 -.03484 -259.772 -715.416)" gradientUnits="userSpaceOnUse">
            <stop offset=".07" stop-color="#C0C0C0"/>
            <stop offset="1" stop-color="#3B3B3B"/>
        </radialGradient>
        <radialGradient id="aF" cx="0" cy="0" r="1" gradientTransform="rotate(-90.372 -90872.278 -81131.743) scale(74176.5 5110.31)" gradientUnits="userSpaceOnUse">
            <stop offset=".07" stop-color="#C0C0C0"/>
            <stop offset="1" stop-color="#3B3B3B"/>
        </radialGradient>
        <radialGradient id="aG" cx="0" cy="0" r="1" gradientTransform="rotate(-90.372 -181.047 674.548) scale(5.81581 5.36496)" gradientUnits="userSpaceOnUse">
            <stop offset=".07" stop-color="#C0C0C0"/>
            <stop offset="1" stop-color="#3B3B3B"/>
        </radialGradient>
        <radialGradient id="aH" cx="0" cy="0" r="1" gradientTransform="rotate(-90.372 -1283.355 -356.804) scale(5.81585 5.36489)" gradientUnits="userSpaceOnUse">
            <stop offset=".07" stop-color="#C0C0C0"/>
            <stop offset="1" stop-color="#3B3B3B"/>
        </radialGradient>
        <radialGradient id="aI" cx="0" cy="0" r="1" gradientTransform="matrix(-84.81913 -13060.22458 2050.17676 -13.3148 -10362 -89684.1)" gradientUnits="userSpaceOnUse">
            <stop offset=".07" stop-color="#C0C0C0"/>
            <stop offset="1" stop-color="#3B3B3B"/>
        </radialGradient>
        <radialGradient id="aJ" cx="0" cy="0" r="1" gradientTransform="rotate(-90.372 -768.974 204.481) scale(5.81588 5.36497)" gradientUnits="userSpaceOnUse">
            <stop offset=".07" stop-color="#C0C0C0"/>
            <stop offset="1" stop-color="#3B3B3B"/>
        </radialGradient>
        <radialGradient id="aK" cx="0" cy="0" r="1" gradientTransform="rotate(-90.372 -26015.155 -12445.568) scale(27245.3 5944.87)" gradientUnits="userSpaceOnUse">
            <stop offset=".07" stop-color="#C0C0C0"/>
            <stop offset="1" stop-color="#3B3B3B"/>
        </radialGradient>
        <radialGradient id="aL" cx="0" cy="0" r="1" gradientTransform="rotate(-90.372 -636.936 182.474) scale(14.0973 13.0043)" gradientUnits="userSpaceOnUse">
            <stop offset=".07" stop-color="#C0C0C0"/>
            <stop offset="1" stop-color="#3B3B3B"/>
        </radialGradient>
        <radialGradient id="aM" cx="0" cy="0" r="1" gradientTransform="matrix(-448.99876 -69135.64201 11437.0588 -74.27754 -19024.4 -134813)" gradientUnits="userSpaceOnUse">
            <stop offset=".07" stop-color="#C0C0C0"/>
            <stop offset="1" stop-color="#3B3B3B"/>
        </radialGradient>
        <radialGradient id="aN" cx="0" cy="0" r="1" gradientTransform="rotate(-90.372 -1501.947 -575.835) scale(14.0973 13.0043)" gradientUnits="userSpaceOnUse">
            <stop offset=".07" stop-color="#C0C0C0"/>
            <stop offset="1" stop-color="#3B3B3B"/>
        </radialGradient>
        <radialGradient id="aO" cx="0" cy="0" r="1" gradientTransform="matrix(-187.69442 -28900.69052 5236.29957 -34.00695 -10659.9 -85950.4)" gradientUnits="userSpaceOnUse">
            <stop offset=".07" stop-color="#C0C0C0"/>
            <stop offset="1" stop-color="#3B3B3B"/>
        </radialGradient>
        <radialGradient id="aP" cx="0" cy="0" r="1" gradientTransform="rotate(-90.372 -1115.295 -432.927) scale(14.0973 13.0043)" gradientUnits="userSpaceOnUse">
            <stop offset=".07" stop-color="#C0C0C0"/>
            <stop offset="1" stop-color="#3B3B3B"/>
        </radialGradient>
        <radialGradient id="aQ" cx="0" cy="0" r="1" gradientTransform="matrix(-3.39355 -522.52998 198.12082 -1.28669 -3013.55 -7471.05)" gradientUnits="userSpaceOnUse">
            <stop offset=".07" stop-color="#C0C0C0"/>
            <stop offset="1" stop-color="#3B3B3B"/>
        </radialGradient>
        <radialGradient id="aR" cx="0" cy="0" r="1" gradientTransform="rotate(-90.372 -545.332 374.582) scale(14.0973 13.0042)" gradientUnits="userSpaceOnUse">
            <stop offset=".07" stop-color="#C0C0C0"/>
            <stop offset="1" stop-color="#3B3B3B"/>
        </radialGradient>
        <radialGradient id="aS" cx="0" cy="0" r="1" gradientTransform="rotate(-90.372 -8717.7 -5549.942) scale(853.158 249.877)" gradientUnits="userSpaceOnUse">
            <stop offset=".07" stop-color="#C0C0C0"/>
            <stop offset="1" stop-color="#3B3B3B"/>
        </radialGradient>
        <radialGradient id="aT" cx="0" cy="0" r="1" gradientTransform="rotate(-90.372 -737.161 247.19) scale(14.1259 13.0043)" gradientUnits="userSpaceOnUse">
            <stop offset=".07" stop-color="#C0C0C0"/>
            <stop offset="1" stop-color="#3B3B3B"/>
        </radialGradient>
        <radialGradient id="aU" cx="0" cy="0" r="1" gradientTransform="matrix(-85.38413 -13147.22274 2873.5494 -18.66216 -10714.7 -64253.9)" gradientUnits="userSpaceOnUse">
            <stop offset=".07" stop-color="#C0C0C0"/>
            <stop offset="1" stop-color="#3B3B3B"/>
        </radialGradient>
        <radialGradient id="aV" cx="0" cy="0" r="1" gradientTransform="rotate(-90.372 -1243.986 -227.89) scale(14.0973 13.0043)" gradientUnits="userSpaceOnUse">
            <stop offset=".07" stop-color="#C0C0C0"/>
            <stop offset="1" stop-color="#3B3B3B"/>
        </radialGradient>
        <radialGradient id="aW" cx="0" cy="0" r="1" gradientTransform="rotate(-90.372 -20591.746 -17347.13) scale(4257.34 706.743)" gradientUnits="userSpaceOnUse">
            <stop offset=".07" stop-color="#C0C0C0"/>
            <stop offset="1" stop-color="#3B3B3B"/>
        </radialGradient>
        <radialGradient id="aX" cx="0" cy="0" r="1" gradientTransform="rotate(-90.372 -1042.768 -249.315) scale(14.0973 13.0043)" gradientUnits="userSpaceOnUse">
            <stop offset=".07" stop-color="#C0C0C0"/>
            <stop offset="1" stop-color="#3B3B3B"/>
        </radialGradient>
        <radialGradient id="aY" cx="0" cy="0" r="1" gradientTransform="rotate(-90.372 -19958.818 -17342.773) scale(2436.3 377.714)" gradientUnits="userSpaceOnUse">
            <stop offset=".07" stop-color="#C0C0C0"/>
            <stop offset="1" stop-color="#3B3B3B"/>
        </radialGradient>
        <radialGradient id="aZ" cx="0" cy="0" r="1" gradientTransform="rotate(-90.372 -1366.787 -519.409) scale(14.0974 13.0044)" gradientUnits="userSpaceOnUse">
            <stop offset=".07" stop-color="#C0C0C0"/>
            <stop offset="1" stop-color="#3B3B3B"/>
        </radialGradient>
        <radialGradient id="ba" cx="0" cy="0" r="1" gradientTransform="matrix(-42.49301 -6542.96202 1471.39897 -9.55594 -7654.19 -60623.6)" gradientUnits="userSpaceOnUse">
            <stop offset=".07" stop-color="#C0C0C0"/>
            <stop offset="1" stop-color="#3B3B3B"/>
        </radialGradient>
        <radialGradient id="bb" cx="0" cy="0" r="1" gradientTransform="rotate(-90.372 -1622.65 -414.006) scale(14.1259 13.0043)" gradientUnits="userSpaceOnUse">
            <stop offset=".07" stop-color="#C0C0C0"/>
            <stop offset="1" stop-color="#3B3B3B"/>
        </radialGradient>
        <radialGradient id="bc" cx="0" cy="0" r="1" gradientTransform="rotate(-90.372 -22573.928 -4315.621) scale(21006 8105.68)" gradientUnits="userSpaceOnUse">
            <stop offset=".07" stop-color="#C0C0C0"/>
            <stop offset="1" stop-color="#3B3B3B"/>
        </radialGradient>
        <radialGradient id="bd" cx="0" cy="0" r="1" gradientTransform="rotate(-90.372 -368.625 204.306) scale(14.0974 13.0044)" gradientUnits="userSpaceOnUse">
            <stop offset=".07" stop-color="#C0C0C0"/>
            <stop offset="1" stop-color="#3B3B3B"/>
        </radialGradient>
        <radialGradient id="be" cx="0" cy="0" r="1" gradientTransform="rotate(-90.372 -5712.26 -565.568) scale(2055.14 645.441)" gradientUnits="userSpaceOnUse">
            <stop offset=".07" stop-color="#C0C0C0"/>
            <stop offset="1" stop-color="#3B3B3B"/>
        </radialGradient>
        <radialGradient id="bf" cx="0" cy="0" r="1" gradientTransform="rotate(-90.372 -204.492 718.375) scale(14.0973 13.0043)" gradientUnits="userSpaceOnUse">
            <stop offset=".07" stop-color="#C0C0C0"/>
            <stop offset="1" stop-color="#3B3B3B"/>
        </radialGradient>
        <radialGradient id="bg" cx="0" cy="0" r="1" gradientTransform="rotate(-90.372 -13134.32 -10111.391) scale(4616.71 741.765)" gradientUnits="userSpaceOnUse">
            <stop offset=".07" stop-color="#C0C0C0"/>
            <stop offset="1" stop-color="#3B3B3B"/>
        </radialGradient>
        <radialGradient id="bh" cx="0" cy="0" r="1" gradientTransform="matrix(-.09155 -14.097 12.99113 -.08437 -619.032 -370.205)" gradientUnits="userSpaceOnUse">
            <stop offset=".07" stop-color="#C0C0C0"/>
            <stop offset="1" stop-color="#3B3B3B"/>
        </radialGradient>
        <radialGradient id="bi" cx="0" cy="0" r="1" gradientTransform="rotate(-90.372 -2984.206 -1131.38) scale(313.07 103.484)" gradientUnits="userSpaceOnUse">
            <stop offset=".07" stop-color="#C0C0C0"/>
            <stop offset="1" stop-color="#3B3B3B"/>
        </radialGradient>
        <radialGradient id="bj" cx="0" cy="0" r="1" gradientTransform="rotate(-90.372 -235.257 619.577) scale(14.0973 13.0043)" gradientUnits="userSpaceOnUse">
            <stop offset=".07" stop-color="#C0C0C0"/>
            <stop offset="1" stop-color="#3B3B3B"/>
        </radialGradient>
        <radialGradient id="bk" cx="0" cy="0" r="1" gradientTransform="matrix(-122.11408 -18802.80347 2043.4869 -13.27135 -4218.69 -81238.8)" gradientUnits="userSpaceOnUse">
            <stop offset=".07" stop-color="#C0C0C0"/>
            <stop offset="1" stop-color="#3B3B3B"/>
        </radialGradient>
        <radialGradient id="bl" cx="0" cy="0" r="1" gradientTransform="rotate(-90.372 -1177.45 -520.285) scale(14.0973 13.0043)" gradientUnits="userSpaceOnUse">
            <stop offset=".07" stop-color="#C0C0C0"/>
            <stop offset="1" stop-color="#3B3B3B"/>
        </radialGradient>
        <radialGradient id="bm" cx="0" cy="0" r="1" gradientTransform="rotate(-90.372 -9813.692 -8363.202) scale(1403.6 159.868)" gradientUnits="userSpaceOnUse">
            <stop offset=".07" stop-color="#C0C0C0"/>
            <stop offset="1" stop-color="#3B3B3B"/>
        </radialGradient>
        <radialGradient id="bn" cx="0" cy="0" r="1" gradientTransform="rotate(-90.372 -857.038 81.295) scale(14.0973 13.0043)" gradientUnits="userSpaceOnUse">
            <stop offset=".07" stop-color="#C0C0C0"/>
            <stop offset="1" stop-color="#3B3B3B"/>
        </radialGradient>
        <radialGradient id="bo" cx="0" cy="0" r="1" gradientTransform="rotate(-90.372 -8086.076 -6006.486) scale(841.887 263.81)" gradientUnits="userSpaceOnUse">
            <stop offset=".07" stop-color="#C0C0C0"/>
            <stop offset="1" stop-color="#3B3B3B"/>
        </radialGradient>
        <radialGradient id="bp" cx="0" cy="0" r="1" gradientTransform="rotate(-90.372 -690.543 -101.518) scale(14.0973 13.0043)" gradientUnits="userSpaceOnUse">
            <stop offset=".07" stop-color="#C0C0C0"/>
            <stop offset="1" stop-color="#3B3B3B"/>
        </radialGradient>
        <radialGradient id="bq" cx="0" cy="0" r="1" gradientTransform="rotate(-90.372 -10044.816 -8172.223) scale(915.276 181.618)" gradientUnits="userSpaceOnUse">
            <stop offset=".07" stop-color="#C0C0C0"/>
            <stop offset="1" stop-color="#3B3B3B"/>
        </radialGradient>
        <radialGradient id="br" cx="0" cy="0" r="1" gradientTransform="rotate(-90.372 -1034.098 -181.525) scale(14.0974 13.0044)" gradientUnits="userSpaceOnUse">
            <stop offset=".07" stop-color="#C0C0C0"/>
            <stop offset="1" stop-color="#3B3B3B"/>
        </radialGradient>
        <radialGradient id="bs" cx="0" cy="0" r="1" gradientTransform="rotate(-90.372 -35776.124 -30195.233) scale(8159.44 2260.91)" gradientUnits="userSpaceOnUse">
            <stop offset=".07" stop-color="#C0C0C0"/>
            <stop offset="1" stop-color="#3B3B3B"/>
        </radialGradient>
        <radialGradient id="bt" cx="0" cy="0" r="1" gradientTransform="rotate(-90.372 -1183.841 -851.116) scale(14.0972 13.0307)" gradientUnits="userSpaceOnUse">
            <stop offset=".07" stop-color="#C0C0C0"/>
            <stop offset="1" stop-color="#3B3B3B"/>
        </radialGradient>
    </defs>
</svg>
